/* XPM */
static char *e3fa26a6dc74455adabf092bc9948f4aYUNZGzSUiB9WEIBS[] = {
/* columns rows colors chars-per-pixel */
"64 64 239 2 ",
"   c #84C669",
".  c #30202C",
"X  c #35222E",
"o  c #36222E",
"O  c #37242F",
"+  c #38232F",
"@  c #39242F",
"#  c #3A242F",
"$  c #372531",
"%  c #392531",
"&  c #3A2430",
"*  c #3B2430",
"=  c #3A2531",
"-  c #3B2531",
";  c #3C2530",
":  c #3D2530",
">  c #3C2531",
",  c #3C2631",
"<  c #3D2631",
"1  c #3E2631",
"2  c #3F2631",
"3  c #48262F",
"4  c #402631",
"5  c #412631",
"6  c #412731",
"7  c #432630",
"8  c #432731",
"9  c #422732",
"0  c #442731",
"q  c #472731",
"w  c #482731",
"e  c #442833",
"r  c #452934",
"t  c #482831",
"y  c #4D2831",
"u  c #4F2931",
"i  c #4D2932",
"p  c #482A34",
"a  c #4A2A35",
"s  c #4A2C36",
"d  c #4F2C36",
"f  c #4F2D36",
"g  c #522830",
"h  c #522931",
"j  c #532931",
"k  c #502932",
"l  c #532A32",
"z  c #542A32",
"x  c #562A32",
"c  c #572A32",
"v  c #552F38",
"b  c #562F38",
"n  c #562F39",
"m  c #563039",
"M  c #59313A",
"N  c #5B313A",
"B  c #612B30",
"V  c #602B31",
"C  c #602C31",
"Z  c #612C32",
"A  c #622C32",
"S  c #642C31",
"D  c #652D32",
"F  c #692E32",
"G  c #6A2F34",
"H  c #732E31",
"J  c #732F32",
"K  c #742F32",
"L  c #67373E",
"P  c #6C343A",
"I  c #6A383F",
"U  c #743033",
"Y  c #753033",
"T  c #7C3032",
"R  c #7D3133",
"E  c #7E3132",
"W  c #7E3233",
"Q  c #683840",
"!  c #6A3840",
"~  c #6F3A41",
"^  c #7B3F45",
"/  c #7C3F45",
"(  c #7D4046",
")  c #803031",
"_  c #803132",
"`  c #813233",
"'  c #8B3332",
"]  c #8C3433",
"[  c #8C3434",
"{  c #8D3637",
"}  c #8F3B3C",
"|  c #9A3532",
" . c #9B3533",
".. c #9B3734",
"X. c #9C3734",
"o. c #9C3735",
"O. c #A83833",
"+. c #A93833",
"@. c #A93935",
"#. c #AA3A35",
"$. c #B03933",
"%. c #B23A33",
"&. c #B13B35",
"*. c #B23B35",
"=. c #B33B35",
"-. c #BE3D35",
";. c #BE3D36",
":. c #B43F3A",
">. c #C63D34",
",. c #C63E34",
"<. c #C63F36",
"1. c #AC403D",
"2. c #B6423D",
"3. c #D14136",
"4. c #D64034",
"5. c #D44136",
"6. c #D44237",
"7. c #D74236",
"8. c #DA4237",
"9. c #DA4337",
"0. c #DE4235",
"q. c #DF4337",
"w. c #DF4437",
"e. c #D6473D",
"r. c #D7483E",
"t. c #E34335",
"y. c #E74335",
"u. c #E74435",
"i. c #E44437",
"p. c #E44537",
"a. c #E64537",
"s. c #E74537",
"d. c #E84335",
"f. c #EB4435",
"g. c #E94436",
"h. c #E84537",
"j. c #E94537",
"k. c #EA4537",
"l. c #EB4537",
"z. c #EC4435",
"x. c #EC4536",
"c. c #ED4536",
"v. c #EF4536",
"b. c #EC4637",
"n. c #EE4637",
"m. c #EA4B3F",
"M. c #EB4B3F",
"N. c #EC4C3F",
"B. c #EF4C3F",
"V. c #F04637",
"C. c #F14737",
"Z. c #F54737",
"A. c #F04D3F",
"S. c #F34D3F",
"D. c #854348",
"F. c #8A454A",
"G. c #8A454B",
"H. c #944649",
"J. c #954A4E",
"K. c #974A4E",
"L. c #B14C4B",
"P. c #A75154",
"I. c #A95154",
"U. c #B45658",
"Y. c #B9585A",
"T. c #CC4A43",
"R. c #CF514C",
"E. c #C1595A",
"W. c #C15B5C",
"Q. c #C25C5D",
"!. c #C35C5D",
"~. c #D55E5C",
"^. c #E65349",
"/. c #E0554E",
"(. c #E7554C",
"). c #F0574C",
"_. c #F2574C",
"`. c #F5574C",
"'. c #F6584C",
"]. c #F6584D",
"[. c #F8594D",
"{. c #FE594D",
"}. c #FE5A4D",
"|. c #F15F57",
" X c #E6615C",
".X c #F3635C",
"XX c #F6635C",
"oX c #F7635C",
"OX c #F8645C",
"+X c #FA645C",
"@X c #FB645C",
"#X c #FA655D",
"$X c #FC655D",
"%X c #FF665D",
"&X c #CF6161",
"*X c #D46363",
"=X c #D76464",
"-X c #E36A68",
";X c #E56A68",
":X c #E76B68",
">X c #E86B69",
",X c #E86C69",
"<X c #E96C6A",
"1X c #EF6E6C",
"2X c #EF6F6C",
"3X c #F76962",
"4X c #F46E6B",
"5X c #FA6E69",
"6X c #F86F6A",
"7X c #FC6E69",
"8X c #FD6E69",
"9X c #FC6F69",
"0X c #FD6F69",
"qX c #F4716D",
"wX c #F6716E",
"eX c #FD706B",
"rX c #FE706B",
"tX c #FF706B",
"yX c #FA736F",
"uX c #FC7470",
"iX c #FF7470",
"pX c #FE7471",
"aX c #FE7571",
"sX c #FF7571",
"dX c #FF7572",
"fX c #FF7672",
"gX c #FF7772",
"hX c #FF7673",
"jX c #FF7773",
"kX c #FF7774",
"lX c #FF7873",
"zX c #FF7874",
"xX c #FF7974",
"cX c #FF7875",
"vX c #FF7975",
"bX c #FF7A75",
"nX c #FF7A76",
"mX c #FF7C76",
"MX c #FF7C77",
/* pixels */
"                                                                                                                                ",
"                                                                                                                                ",
"                                                                                                                                ",
"                                                                                                                                ",
"                                                                                                                                ",
"                                                                                                                                ",
"                                                                                                                                ",
"                                                                                                                                ",
"                                                                                                                                ",
"                                                                                                                                ",
"                                                                                                                                ",
"                                                                                                                                ",
"                                  2 2 2 2 2 2 2 2 2 2 2 2 2 2 2 2 2 2 2 2 2 2 2 2 2 2 2 2 2 2                                   ",
"                                2 2 2 2 2 2 2 2 2 2 2 2 2 2 2 2 2 2 2 2 2 2 2 2 2 2 2 2 2 2 2 2                                 ",
"                                2 2 2 2 2 2 2 2 2 2 2 2 2 2 2 2 2 2 2 2 2 2 2 2 2 2 2 2 2 2 2 2                                 ",
"                              2 2 2 2 2 2 * # # # # * 2 2 2 2 2 2 2 2 2 2 * # # # # * 2 2 2 2 2 2                               ",
"                          2 2 2 2 2 2 2 * # + + + + # * 2 2 2 2 2 2 2 2 * # + + + + # * 2 2 2 2 2 2 2                           ",
"                        2 2 2 2 2 2 2 2 9 9 9 9 9 9 9 9 2 2 2 2 2 2 2 2 9 9 9 9 9 9 9 9 2 2 2 2 2 2 2 2                         ",
"                        2 2 2 2 2 2 9 p f b N N N N b f p 9 2 2 2 2 9 p f b N N N N b f p 9 2 2 2 2 2 2                         ",
"                      2 2 2 2 2 * 2 r m Q ^ D.G.G.D.^ I b e # X X # e b I ^ D.G.G.D.^ Q m r 2 * 2 2 2 2 2                       ",
"                  2 2 2 2 2 2 * O * s Q G.P.Y.W.W.Y.P.G.L p + . . + p L G.P.Y.Q.W.Y.P.G.Q s * O * 2 2 2 2 2 2                   ",
"                2 2 2 2 2 2 2 * # 9 b / I.&X:X2X2X:X&XI./ m 9 X X 9 m / I.&X:X2X2X:X&XI./ b 9 # * 2 2 2 2 2 2 2                 ",
"                2 2 2 2 2 2 9 9 3 z P H.E.:XpXxXxXpX>XQ.K.~ N f f N ~ K.Q.>XpXxXxXpX:XE.H.P z 3 9 9 2 2 2 2 2 2                 ",
"                2 2 2 2 2 2 q j B Y } L.~.4XlXMXMXlXqX=XU.K.D.( ( D.K.U.=XqXlXMXMXlX4X~.L.} Y B j q 2 2 2 2 2 2                 ",
"                2 2 2 2 * 9 y S ) o.2.R. X5XpXxXxXpXyX,X*XQ.Y.U.U.Y.Q.*X,XyXpXxXxXpX5X XR.2.o.) S y 9 * 2 2 2 2                 ",
"                2 2 2 * * 9 j J | ;.r.(..X5XpXkXpXpXpXqX2X,X:X-X-X:X,X2XqXpXpXpXkXpX5X.X(.r.;.| J j 9 * * 2 2 2                 ",
"                2 2 2 * * 9 z T +.3.m.].OX9XpXpXpXpXpXpXpXpXpXpXpXpXpXpXpXpXpXpXpXpX9XOX].m.3.+.T z 9 * * 2 2 2                 ",
"                2 2 2 * * 9 z ) $.9.S.{.$XeXpXxXkXpXpXpXxXxXxXxXxXxXxXxXpXpXpXkXxXpXeX$X{.S.9.$.) z 9 * * 2 2 2                 ",
"                2 2 2 * * 9 z ) $.9.S.{.$XeXpXxXxXpXpXkXxXxXxXxXxXxXxXxXkXpXpXxXxXpXeX$X{.S.9.$.) z 9 * * 2 2 2                 ",
"                2 2 2 * * 9 z T +.3.m.].OX9XpXpXpXpXpXpXpXpXpXpXpXpXpXpXpXpXpXpXpXpX9XOX].m.3.+.T z 9 * * 2 2 2                 ",
"                2 2 2 * * 9 j J | ;.e.^.|.3X9XeXeX9X9X9X9X9X9X9X9X9X9X9X9X9X9XeXeX9X3X|.^.e.;.| J j 9 * * 2 2 2                 ",
"                2 2 2 2 * 9 y S ) o.:.T./.|.OX$XOXOXoXoXoXoXoXoXoXoXoXoXoXoXOXOX$XOX|./.T.:.o.) S y 9 * 2 2 2 2                 ",
"                2 2 2 2 2 2 q j S Y [ 1.T.^.`.[.]._._._._._._._._._._._._._._.].[.`.^.T.1.[ Y S j q 2 2 2 2 2 2                 ",
"                2 2 2 2 2 2 9 9 w j G [ :.e.m.S.B.B.m.m.m.m.m.m.m.m.m.m.m.m.B.B.S.m.e.:.[ G j w 9 9 2 2 2 2 2 2                 ",
"                2 2 2 2 2 2 2 2 * 9 j Y ..;.5.w.s.s.j.j.j.j.j.j.j.j.j.j.j.j.s.s.w.5.;...Y j 9 * 2 2 2 2 2 2 2 2                 ",
"                  2 2 2 2 2 2 * $ * w S T | $.<.5.t.j.n.j.d.y.y.y.y.d.j.n.j.t.5.<.$.| T S w * $ * 2 2 2 2 2 2                   ",
"                      2 2 2 2 2 * 2 9 y B K ' +.<.q.n.n.n.j.s.s.s.s.j.n.n.n.q.<.+.' K B y 9 2 * 2 2 2 2 2                       ",
"                        2 2 2 2 2 2 9 9 t j F ] &.5.s.n.j.j.j.j.j.j.j.j.n.s.5.&.] F j t 9 9 2 2 2 2 2 2                         ",
"                        2 2 2 2 2 2 2 2 * 9 j Y ..;.5.q.s.s.j.j.j.j.s.s.q.5.;...Y j 9 * 2 2 2 2 2 2 2 2                         ",
"                          2 2 2 2 2 2 * $ * t S T ..&.<.5.s.n.V.V.n.s.5.<.&...T S t * $ * 2 2 2 2 2 2                           ",
"                              2 2 2 2 2 * 2 9 y S Y [ #.<.q.n.Z.Z.n.q.<.#.[ Y S j 9 2 * 2 2 2 2 2                               ",
"                                2 2 2 2 2 2 9 9 t j F [ &.5.s.V.V.s.5.&.[ F j t 9 9 2 2 2 2 2 2                                 ",
"                                2 2 2 2 2 2 2 2 * 9 j Y o.;.3.9.9.3.;.o.Y j 9 * 2 2 2 2 2 2 2 2                                 ",
"                                  2 2 2 2 2 2 * $ * t S ) ..#.&.&.#...) S t * $ * 2 2 2 2 2 2                                   ",
"                                      2 2 2 2 2 * 2 q j S Y T ) ) T Y S j q 2 * 2 2 2 2 2                                       ",
"                                        2 2 2 2 2 2 9 q y j z z z z j y q 9 2 2 2 2 2 2                                         ",
"                                        2 2 2 2 2 2 2 2 9 9 9 9 9 9 9 9 2 2 2 2 2 2 2 2                                         ",
"                                          2 2 2 2 2 2 2 * * * * * * * * 2 2 2 2 2 2 2                                           ",
"                                              2 2 2 2 2 2 * * * * * * 2 2 2 2 2 2                                               ",
"                                                2 2 2 2 2 2 2 2 2 2 2 2 2 2 2 2                                                 ",
"                                                2 2 2 2 2 2 2 2 2 2 2 2 2 2 2 2                                                 ",
"                                                  2 2 2 2 2 2 2 2 2 2 2 2 2 2                                                   ",
"                                                                                                                                ",
"                                                                                                                                ",
"                                                                                                                                ",
"                                                                                                                                ",
"                                                                                                                                ",
"                                                                                                                                ",
"                                                                                                                                ",
"                                                                                                                                ",
"                                                                                                                                ",
"                                                                                                                                ",
"                                                                                                                                ",
"                                                                                                                                "
};
