/* XPM */
static char *result[] = {
/* columns rows colors chars-per-pixel */
"64 64 167 2 ",
"   c #3C1C26",
".  c #3A1E29",
"X  c #3C212C",
"o  c #3F2631",
"O  c #3E2935",
"+  c #3C2D3A",
"@  c #342D3F",
"#  c #3B303E",
"$  c #421E26",
"%  c #401F28",
"&  c #41232C",
"*  c #402732",
"=  c #432A34",
"-  c #452E39",
";  c #4B333D",
":  c #353446",
">  c #393343",
",  c #383847",
"<  c #373648",
"1  c #363B4B",
"2  c #383A48",
"3  c #323E55",
"4  c #4A3440",
"5  c #4E3945",
"6  c #523B45",
"7  c #503C48",
"8  c #2F495F",
"9  c #2F445C",
"0  c #304159",
"q  c #324A5C",
"w  c #2C4B66",
"e  c #244B6A",
"r  c #2A4C6A",
"t  c #28506F",
"y  c #2B596F",
"u  c #27506F",
"i  c #244F70",
"p  c #275372",
"a  c #285070",
"s  c #275A76",
"d  c #295E75",
"f  c #255D7B",
"g  c #3A5F7D",
"h  c #27647C",
"j  c #286179",
"k  c #48495B",
"l  c #5D4C59",
"z  c #5F4A55",
"x  c #685A67",
"c  c #685B68",
"v  c #6D616E",
"b  c #70616D",
"n  c #6E6270",
"m  c #666A7C",
"M  c #716673",
"N  c #746875",
"B  c #235D80",
"V  c #1C668F",
"C  c #166E9C",
"Z  c #186D9B",
"A  c #17709D",
"S  c #19739E",
"D  c #1D7E9C",
"F  c #236A87",
"G  c #226986",
"H  c #1573A2",
"J  c #167CA7",
"K  c #167BA7",
"L  c #107DB1",
"P  c #2978A3",
"I  c #587792",
"U  c #178BAC",
"Y  c #188BAB",
"T  c #1784A9",
"R  c #0D8ABC",
"E  c #158FB3",
"W  c #0E91BF",
"Q  c #1591B4",
"!  c #4885AB",
"~  c #5F98BD",
"^  c #7C94AC",
"/  c #6C96B5",
"(  c #7FA1BE",
")  c #088AC5",
"_  c #068DC9",
"`  c #068AC5",
"'  c #1B8DC3",
"]  c #0794CC",
"[  c #0891C9",
"{  c #0E99C5",
"}  c #109EC3",
"|  c #079DD2",
" . c #0097DB",
".. c #009BDD",
"X. c #0396D4",
"o. c #149AD6",
"O. c #3A92C0",
"+. c #359BCE",
"@. c #06A2D5",
"#. c #01A1DE",
"$. c #06ABDA",
"%. c #08ADD9",
"&. c #09AAD6",
"*. c #15A1DE",
"=. c #1AA1DC",
"-. c #09B1DA",
";. c #07B5DF",
":. c #3AA4D7",
">. c #009DE1",
",. c #00A3E3",
"<. c #00ABE5",
"1. c #00A2E8",
"2. c #00ABE9",
"3. c #04B2E3",
"4. c #00B4EB",
"5. c #00BBEE",
"6. c #00BCF2",
"7. c #00B3F0",
"8. c #5B9DC5",
"9. c #46ACDC",
"0. c #61A5CC",
"q. c #6BAED3",
"w. c #7AB9DC",
"e. c #75B5D9",
"r. c #00C4F3",
"t. c #00C8F5",
"y. c #00C5F8",
"u. c #00CBFA",
"i. c #00D1FF",
"p. c #86818F",
"a. c #88818F",
"s. c #8F8C9B",
"d. c #918F9D",
"f. c #92909F",
"g. c #888FA2",
"h. c #8990A2",
"j. c #9594A3",
"k. c #819FBC",
"l. c #8BA3BD",
"z. c #98A8BF",
"x. c #9FA1B1",
"c. c #A0A2B1",
"v. c #87A9C6",
"b. c #8EA7C0",
"n. c #9BABC2",
"m. c #94B5CF",
"M. c #A3B0C4",
"N. c #AFB5C5",
"B. c #ACB6CA",
"V. c #AEBBCF",
"C. c #A5B4CA",
"Z. c #B1B6C5",
"A. c #B3BBCD",
"S. c #A0BFD7",
"D. c #B2BDD1",
"F. c #A6C4DC",
"G. c #A8C6DD",
"H. c #BAC4D6",
"J. c #BAC6D9",
"K. c #BEC9DB",
"L. c #B4C2D6",
"P. c #C0CBDC",
"I. c #C4CFE0",
"U. c #C5D2E4",
"Y. c #C9D4E5",
"T. c #C9D6E8",
"R. c #84C669",
/* pixels */
"R.R.R.R.R.R.R.R.o o o o o o o * o o o o * o o o o * o o o o o o o o o o * o o o * * * o R.R.R.R.R.R.R.R.R.R.R.R.R.R.R.R.R.R.R.R.",
"R.R.R.R.R.R.R.R.o * * * o o o o o o o o o o o o o o o o o o o o o o o o o o o o X * * o R.R.R.R.R.R.R.R.R.R.R.R.R.R.R.R.R.R.R.R.",
"R.R.R.R.R.R.R.R.o o o * * * o X o o * * o * o o o o o o o o o & o & o o o o o o * * o o R.R.R.R.R.R.R.R.R.R.R.R.R.R.R.R.R.R.R.R.",
"R.R.R.R.R.R.R.o o o o X X X X X X X X X X * * o o o o & & & & & & & & & & & & & * X o * o R.R.R.R.R.R.R.R.R.R.R.R.R.R.R.R.R.R.R.",
"R.R.R.R.R.o o o o o o o X X X X X X X X X o o o o o o & X & & & % % & % & & & & * X * o o o o o o o o o o * o R.R.R.R.R.R.R.R.R.",
"R.R.R.R.o o o o o o o o * * * o * * * o * o o o o o o o * * * * * o * O o o o o o * * * o o o o o o o o o o o o R.R.R.R.R.R.R.R.",
"R.R.R.R.o o o o o o * - 4 5 7 7 7 7 6 ; - * * & * o O + > 2 1 1 1 1 1 1 < < > > + * * & * X & o * X * * o o o * R.R.R.R.R.R.R.R.",
"R.R.R.R.o o o o o o - 7 l c n N M M c l 6 - &   % & O 2 q y j h h h d s s a w 3 > O & & & & & & & & & & * o o o o R.R.R.R.R.R.R.",
"R.R.R.R.o o * X X o 4 l N p.j.j.j.j.p.N z ; & $ $ & # q j T Y Q E U Y T K S V a 3 + % $ & & & & & & & & * X * * o o o R.R.R.R.R.",
"R.R.R.R.o o * X X o 5 c p.x.N.A.A.N.x.p.x 5 *     o 2 y T } -.3.3.-.%.@.| _ L V w > O * & * * o o o * * * o * * o o * o R.R.R.R.",
"R.R.R.R.* o o X X o 7 n f.N.K.U.I.J.M.h.m k < @ @ , 8 G Y -.r.u.t.y.r.5.4.,.[ K B 0 : > > < < < < < > > + o o X o o o o R.R.R.R.",
"R.R.R.R.o o * X X o 7 n f.B.U.U.K.L.M.^ I g a e e u h T } ;.u.i.i.u.y.y.6.4.@.R Z B a r r a a a p t w 0 < + o * & o o o R.R.R.R.",
"R.R.R.R.o o o X X * 7 M j.Z.K.P.L.C.b./ ! P A C Z C J W &.5.u.u.u.u.t.y.y.6.3.| R K A Z Z C Z H H Z V s 0 > o & & o o o R.R.R.R.",
"R.R.R.R.o o X X X * 7 M f.N.J.J.B.n.( ~ O.' ) ` ` ` [ @.;.5.r.t.t.t.t.r.r.r.5.<.| ] ) ) ) ) _ _ _ ) L V w > o & & * o o R.R.R.R.",
"R.R.R.R.o * o X X X 7 M f.N.J.L.B.n.( 8.+.o. . . . ...<.4.r.r.t.t.r.r.r.r.6.5.4.2.,.>. . . ...>.>. .) Z t < o & & o o o R.R.R.R.",
"R.R.R.R.o o o X X * 7 b f.Z.H.H.A.n.v.0.:.*.>.>.>.,.,.2.5.r.r.t.t.y.r.r.5.5.4.4.2.4.2.2.,.,.,.,.1.>._ H p 1 o & & o o o R.R.R.R.",
"R.R.R.R.o o o X X o 7 n f.N.P.P.H.A.m.q.:.*...>.>.>.,.2.5.6.t.t.t.r.r.5.4.<.<.3.4.5.5.2.2.,.>.>.,.>._ H a < o & & o o o R.R.R.R.",
"R.R.R.R.o o o X X * 7 v f.N.P.P.P.J.F.e.9.=... . ...#.<.4.r.t.t.t.r.r.5.<.,.,.<.5.5.5.4.,.,...>.>. ._ Z a < o & & o * o R.R.R.R.",
"R.R.R.R.o o o X X * 7 n f.N.P.Y.Y.P.G.w.9.=. . . .....<.4.5.t.t.t.r.6.4.3.,.<.<.4.5.5.4.<.....>.>. .) S t < * & & o o o R.R.R.R.",
"R.R.R.R.o o o X X * 7 n d.N.K.Y.P.P.L.w.9.=... . . .#.<.4.r.r.t.t.r.r.5.4.4.<.<.2.4.4.<.,.,...>.>. .) Z t < o & & * o o R.R.R.R.",
"R.R.R.R.o o o X   * 7 b f.A.P.Y.Y.P.G.w.9.=... . ...#.<.4.r.r.t.t.t.r.r.5.4.4.4.<.<.<.,.,.....>.>. .) A a < o & & X o o R.R.R.R.",
"R.R.R.R.o o o X X = 7 b f.c.P.Y.Y.P.F.w.9.=... . . .#.<.4.r.r.t.t.r.r.r.r.r.5.4.<.,.#...........,...) A r < * & & o * o R.R.R.R.",
"R.R.R.R.o o o X & & 6 b f.c.P.I.P.P.G.w.9.=... . .....<.4.r.t.t.t.r.r.r.r.6.5.4.<.,.#.........>.>. .) S p < o & & * o o R.R.R.R.",
"R.R.R.R.o o o X & = 6 N j.A.P.Y.Y.P.G.w.9.=... . . .#.<.5.5.r.t.t.r.r.r.5.5.4.4.3.<.<.,.#.....>.>. .) A a < o & & * o o R.R.R.R.",
"R.R.R.R.o o o X X o k b f.Z.P.Y.Y.P.L.w.9.=... . ...,.<.5.r.r.t.t.r.r.5.3.<.<.4.4.4.3.<.,.....>.>. .) A a < X & & * o o R.R.R.R.",
"R.R.R.R.o o o X X o 6 b f.Z.P.Y.Y.P.F.w.9.=... . . .#.<.4.5.r.t.t.t.r.5.<.,.,.<.4.5.5.4.<.,.....>. .) Z a 2 * & & * o o R.R.R.R.",
"R.R.R.R.o o o X X * 7 v f.Z.P.Y.Y.P.F.w.9.=... . . .>.<.4.r.t.u.t.t.r.5.<.,.,.<.4.5.5.4.,.....>.>. .) C a < o & & X * * R.R.R.R.",
"R.R.R.R.o o o X X * 7 v j.c.P.Y.Y.P.F.w.9.=... . . .,.<.5.y.u.u.u.u.y.5.6.4.2.4.4.4.4.<.,.#...>.>...) S a < * & & * * * R.R.R.R.",
"R.R.R.R.o o o X . * 7 n f.N.P.Y.I.P.G.w.9.=. . . ...#.<.6.y.u.u.u.u.u.y.r.6.6.4.<.<.<.,.,... .>.,. .) A a < o & & X o o R.R.R.R.",
"R.R.R.R.o o o X X * 7 n f.N.P.Y.Y.P.F.w.9.=. . . . .>.<.4.6.r.t.t.r.r.r.r.5.5.4.<.,.#... .....>.>. .) A a < o & & o o o R.R.R.R.",
"R.R.R.R.o o o X X * 7 n d.N.K.P.P.P.S.e.9.=.>. .......$.$.%.-.-.-.-.-.-.-.%.$.$.$.,.,.>.....>.>.,. .) A a < * & & * o * R.R.R.R.",
"R.R.R.R.o o o X . * 7 b d.N.K.P.P.Z.n.q.:.=.>.>.>.>...] W E U U Y Y U Y U E Q { @.,.<.2.,.,.>.>.,.>._ H a < * & & * o o R.R.R.R.",
"R.R.R.R.o o o X X * 7 v f.N.H.H.D.n.v.0.:.*.>.>.1.>.X.R S F j d j j j d d j F T } <.5.7.2.>.>.,.1.>.] A a < O & & * * o R.R.R.R.",
"R.R.R.R.o o o X X * 7 M f.Z.H.L.B.z.( 8.+.o. .>.>. ._ H G 8 1 2 2 2 1 2 2 1 w F Q $.5.5.2.>. .>.>. .) C a < o % & o o o R.R.R.R.",
"R.R.R.R.o o o X X & 7 M f.N.J.J.B.z.( ~ O.' ` _ _ ` L V w > o & & & & & & * 0 y D } %.@.| [ ) _ _ _ L V w > O & & o o o R.R.R.R.",
"R.R.R.R.o o o X X * 7 v f.N.J.J.D.M.l./ ! P C H H C V a 3 + & $ & & & $ & & = q h D U U K H S C H C V p 3 > * % * o o o R.R.R.R.",
"R.R.R.R.o o o X X * 7 v f.N.J.K.J.V.n.^ I g a e i a w 3 > O & & & & & & $ & O 2 q y j d s p t u a a w 3 < + o * & * o o R.R.R.R.",
"R.R.R.R.o * o X X o 7 v f.N.K.Y.I.J.M.g.m k < : : : > > + o o & & o o & & & O + > 2 2 1 < < 1 < < : > > + * o o o o o o R.R.R.R.",
"R.R.R.R.o o o X X * 7 n f.N.K.Y.Y.P.N.s.n 7 * X X O o o * * o o o o * o o o * * * * * X o o * * * * * * * o o o o o o o R.R.R.R.",
"R.R.R.R.o * X X X * 7 n f.N.P.T.T.P.Z.d.b 6 &     % & X * X o o o o o o o o o & & & & & & & & & * % & & * o o * o o o R.R.R.R.R.",
"R.R.R.R.o o o X X o 7 n f.N.K.T.Y.P.Z.d.b 6 &   X & & & * o * o o R.R.o o o o * & & & & & & & & & & & & * o o o o R.R.R.R.R.R.R.",
"R.R.R.R.o o o X X o 5 n f.N.K.T.T.P.N.d.v 7 & X X o X * * o o o R.R.R.R.o o o * o o * X * X * * o o o o * o o o R.R.R.R.R.R.R.R.",
"R.R.R.R.o o o X X o 7 n d.N.P.Y.T.P.N.d.n 7 * X X o o o o o o o R.R.R.R.o o o o * X * o * o o o o o o o o o o o R.R.R.R.R.R.R.R.",
"R.R.R.R.o o o X X o 7 n d.N.P.Y.T.P.N.d.n 7 o X X o o o o o o R.R.R.R.R.R.o * o * * o o o o o * o o o o o o o R.R.R.R.R.R.R.R.R.",
"R.R.R.R.o o o X X o 7 n f.N.K.T.Y.P.N.d.n 7 o X X o o o o R.R.R.R.R.R.R.R.R.R.R.R.R.R.R.R.R.R.R.R.R.R.R.R.R.R.R.R.R.R.R.R.R.R.R.",
"R.R.R.R.o o o X X o 7 n f.N.K.Y.Y.P.N.d.n 7 o X X o o o R.R.R.R.R.R.R.R.R.R.R.R.R.R.R.R.R.R.R.R.R.R.R.R.R.R.R.R.R.R.R.R.R.R.R.R.",
"R.R.R.R.o o o X X o 7 n f.N.P.T.T.K.N.f.n 5 * X X o o o R.R.R.R.R.R.R.R.R.R.R.R.R.R.R.R.R.R.R.R.R.R.R.R.R.R.R.R.R.R.R.R.R.R.R.R.",
"R.R.R.R.o o o X X o 7 v f.N.K.T.T.K.N.f.n 7 o X X o o o R.R.R.R.R.R.R.R.R.R.R.R.R.R.R.R.R.R.R.R.R.R.R.R.R.R.R.R.R.R.R.R.R.R.R.R.",
"R.R.R.R.o o o X X o 7 n s.N.K.T.T.K.N.f.v 7 o X X o o o R.R.R.R.R.R.R.R.R.R.R.R.R.R.R.R.R.R.R.R.R.R.R.R.R.R.R.R.R.R.R.R.R.R.R.R.",
"R.R.R.R.o o o X X o 7 n f.N.K.Y.T.K.N.f.n 7 o X X o o o R.R.R.R.R.R.R.R.R.R.R.R.R.R.R.R.R.R.R.R.R.R.R.R.R.R.R.R.R.R.R.R.R.R.R.R.",
"R.R.R.R.o o o o X o 7 n f.N.K.T.T.K.N.f.n 7 o X X o o o R.R.R.R.R.R.R.R.R.R.R.R.R.R.R.R.R.R.R.R.R.R.R.R.R.R.R.R.R.R.R.R.R.R.R.R.",
"R.R.R.R.o o o X X o 7 n f.N.K.T.Y.K.N.f.n 7 o X X o o o R.R.R.R.R.R.R.R.R.R.R.R.R.R.R.R.R.R.R.R.R.R.R.R.R.R.R.R.R.R.R.R.R.R.R.R.",
"R.R.R.R.o o o X X o 7 n f.N.K.Y.T.K.N.f.n 7 o X X o o o R.R.R.R.R.R.R.R.R.R.R.R.R.R.R.R.R.R.R.R.R.R.R.R.R.R.R.R.R.R.R.R.R.R.R.R.",
"R.R.R.R.o o o X X o 7 n f.N.K.Y.T.K.N.f.n 5 o X X o o o R.R.R.R.R.R.R.R.R.R.R.R.R.R.R.R.R.R.R.R.R.R.R.R.R.R.R.R.R.R.R.R.R.R.R.R.",
"R.R.R.R.o o o X X o 7 n f.N.K.T.Y.K.N.f.n 7 o X X o o o R.R.R.R.R.R.R.R.R.R.R.R.R.R.R.R.R.R.R.R.R.R.R.R.R.R.R.R.R.R.R.R.R.R.R.R.",
"R.R.R.R.o o o X X o 7 n f.N.K.T.Y.K.N.f.n 7 o X X o o o R.R.R.R.R.R.R.R.R.R.R.R.R.R.R.R.R.R.R.R.R.R.R.R.R.R.R.R.R.R.R.R.R.R.R.R.",
"R.R.R.R.o o o X X o 7 n f.N.K.T.T.K.N.f.n 7 o X X o o o R.R.R.R.R.R.R.R.R.R.R.R.R.R.R.R.R.R.R.R.R.R.R.R.R.R.R.R.R.R.R.R.R.R.R.R.",
"R.R.R.R.o o o X X o 7 n f.N.K.Y.T.K.N.f.n 7 o X X o o o R.R.R.R.R.R.R.R.R.R.R.R.R.R.R.R.R.R.R.R.R.R.R.R.R.R.R.R.R.R.R.R.R.R.R.R.",
"R.R.R.R.o o o X X o 5 v f.N.P.T.T.K.N.f.v 7 o X X o * o R.R.R.R.R.R.R.R.R.R.R.R.R.R.R.R.R.R.R.R.R.R.R.R.R.R.R.R.R.R.R.R.R.R.R.R.",
"R.R.R.R.R.o X X X o 7 n d.N.K.T.T.K.N.s.n 7 o X X o o R.R.R.R.R.R.R.R.R.R.R.R.R.R.R.R.R.R.R.R.R.R.R.R.R.R.R.R.R.R.R.R.R.R.R.R.R.",
"R.R.R.R.R.R.R.X X o 5 v s.N.K.Y.T.K.N.s.v 7 o . . R.R.R.R.R.R.R.R.R.R.R.R.R.R.R.R.R.R.R.R.R.R.R.R.R.R.R.R.R.R.R.R.R.R.R.R.R.R.R.",
"R.R.R.R.R.R.R.R.X o 7 v s.N.K.Y.T.K.N.s.v 7 o . R.R.R.R.R.R.R.R.R.R.R.R.R.R.R.R.R.R.R.R.R.R.R.R.R.R.R.R.R.R.R.R.R.R.R.R.R.R.R.R.",
"R.R.R.R.R.R.R.R.. X 7 v s.N.K.T.Y.K.N.s.v 5 * . R.R.R.R.R.R.R.R.R.R.R.R.R.R.R.R.R.R.R.R.R.R.R.R.R.R.R.R.R.R.R.R.R.R.R.R.R.R.R.R.",
"R.R.R.R.R.R.R.R.X o 7 v s.N.K.T.Y.K.N.s.v 7 o . R.R.R.R.R.R.R.R.R.R.R.R.R.R.R.R.R.R.R.R.R.R.R.R.R.R.R.R.R.R.R.R.R.R.R.R.R.R.R.R."
};
