/* XPM */
static char *result[] = {
/* columns rows colors chars-per-pixel */
"64 64 107 2 ",
"   c #5CA356",
".  c #65A456",
"X  c #62A859",
"o  c #6CAD5B",
"O  c #79A754",
"+  c #7AA956",
"@  c #76AD59",
"#  c #7CAC58",
"$  c #6DB25E",
"%  c #72B35E",
"&  c #7CB45E",
"*  c #71B560",
"=  c #76B962",
"-  c #7BBD64",
";  c #7EC166",
":  c #7EC66A",
">  c #7FC86B",
",  c #AD963E",
"<  c #BD953A",
"1  c #C89336",
"2  c #CC9739",
"3  c #D79234",
"4  c #DB9636",
"5  c #D19D3D",
"6  c #E99637",
"7  c #E59B3A",
"8  c #E89E3C",
"9  c #909E49",
"0  c #A09C45",
"q  c #B49E42",
"w  c #9DA149",
"e  c #87A751",
"r  c #88A550",
"t  c #9CAD54",
"y  c #84B45B",
"u  c #90B157",
"i  c #99B057",
"p  c #93B65B",
"a  c #9FBD5E",
"s  c #A6AA4E",
"d  c #B7A144",
"f  c #BBA346",
"g  c #A4AD51",
"h  c #B2AF50",
"j  c #A2B153",
"k  c #ABBB5C",
"l  c #BBB757",
"z  c #B9BD5B",
"x  c #83BD63",
"c  c #8DBE61",
"v  c #C8A040",
"b  c #D9A642",
"n  c #D9AD49",
"m  c #C9B24E",
"M  c #C5B454",
"N  c #CAB251",
"B  c #C3BF5B",
"V  c #D5BD57",
"C  c #DBBC56",
"Z  c #E5AA43",
"A  c #EAAF46",
"S  c #F1A142",
"D  c #F1AC46",
"F  c #EBB047",
"G  c #E1B64E",
"H  c #F4B64B",
"J  c #F8B74C",
"K  c #F5BA4E",
"L  c #FEBC4E",
"P  c #F7AD56",
"I  c #F8AE56",
"U  c #ECBD54",
"Y  c #F7B053",
"T  c #F8B153",
"R  c #F3BF55",
"E  c #FEBE53",
"W  c #FABF62",
"Q  c #FBBF6F",
"!  c #81C267",
"~  c #8BC366",
"^  c #84C669",
"/  c #8AC769",
"(  c #83C86B",
")  c #93C566",
"_  c #9DC464",
"`  c #A7C261",
"'  c #ABC362",
"]  c #B2C361",
"[  c #C6C25D",
"{  c #CFC15B",
"}  c #D4C15B",
"|  c #DFC059",
" . c #F4C055",
".. c #FFC156",
"X. c #FDC76A",
"o. c #FFCA6E",
"O. c #FCCD85",
"+. c #FCCF91",
"@. c #FED592",
"#. c #FFDA98",
"$. c #FDDFAF",
"%. c #FEE7C0",
"&. c #FFEBC8",
"*. c #FEEED3",
"=. c #FFF6E8",
"-. c #FFFAF1",
";. c white",
/* pixels */
"^ ^ ^ ^ ^ ^ ^ ^ ^ ^ ^ ^ : : : : > : : ^ ^ ^ ^ ^ ^ ^ ^ ^ ^ ^ ^ ^ ^ ^ ^ ^ ^ ^ ^ ^ ^ ^ ^ ^ / ^ ^ ^ ^ ^ ^ ^ ^ ^ ^ ^ ^ / ^ ^ ^ ^ ^ ^ ",
"^ ^ ^ ^ ^ ^ ^ ^ ^ ^ ^ ^ ^ ^ ^ ^ ( / ^ ^ ^ ^ ^ ^ ^ ^ ^ ^ ^ ^ ^ ^ ^ ^ ^ ^ ^ ^ ^ ^ ^ ^ ^ ^ ^ ^ ^ ^ ^ ^ ^ ^ ^ ^ ^ ^ ^ ^ ^ ^ ^ ^ ^ ^ ",
"^ ^ ^ ^ ^ ^ ^ ^ ^ ^ ^ / ~ ) ) ) ) ) ) ~ ^ ^ ^ ^ ^ ^ ^ ^ ^ ^ ^ ^ ^ ^ ^ ^ ^ ^ ^ ^ ^ ^ ^ ^ ^ ^ ^ ^ ^ : ^ ^ ! ^ ^ ! ^ : : : ! ^ ^ ^ ",
"^ ^ ^ ^ ^ ^ ^ ( : ( / ) _ ' ] ] ] ' ' _ ) / ( ( ^ ^ ^ ^ ^ ^ ^ ^ ^ ^ ^ ^ ^ ^ ^ ^ ^ ^ ^ ^ ^ ^ ^ ; - & - - ; ^ ^ ; ; & & ; ! ^ ^ ^ ",
"^ ^ ^ ^ ^ ^ ^ > > ( / _ ] [ { } } { [ ' _ / ( > > ^ ^ ^ ^ ^ ^ ^ ^ ^ ^ ^ ^ ^ ^ ^ ^ ^ ^ ^ ^ ^ ^ - % % % & ; ^ : ; % % % & ; ! ^ ^ ",
"^ ^ ^ ^ ^ ^ ^ ( > ( ) ` [ |  . . . .| [ ' ) ^ ( : ^ ^ ^ ^ ^ ^ ^ ^ ^ ^ ^ ^ ^ ^ ^ ^ ^ ^ ^ ^ ^ ! - % $ $ % & ; > & % $ $ % & : ^ ^ ",
"^ ^ ^ ^ ^ ^ ^ ^ ~ p k z V U  .E  .L  .V z a p ^ ! ^ ^ ^ ^ ^ ^ ^ ^ ^ ^ ^ ^ ^ ^ ^ ^ ^ ^ / ^ ^ ; = % $ o $ = ; ; ; % $ $ % & ! ^ ( ",
"^ ^ ^ ^ ^ : ! p p i h m G K L L L L K G m h i p p ^ ^ > ( ^ ^ ^ ^ ^ ^ ^ ^ ^ ^ ^ ^ ^ ^ ^ ^ ^ ! - & % % % % = % % % $ % & ; ^ ^ ^ ",
"^ ^ ^ ( > > ~ p s d v b F J L L L L H F b v d s p c ( ( ( ! ^ ^ ^ ^ ^ ^ ^ ^ ^ ^ ^ ^ ^ ^ ^ ^ ~ ; ; % ; % % % $ % % & & : ; ! ^ ^ ",
"^ ^ ^ ( ( ( p i d 2 4 8 A J E ....E J D 8 4 2 d j c ! ( ( ^ ^ ^ ^ ^ ^ / ^ ^ ^ ^ ^ ^ ^ ^ ^ ^ ^ ^ > : ; & % o o % & ; ; ^ ^ ^ ^ ^ ",
"^ ^ ( / / ) k h v 4 6 S Y X.X.o.o.X.W P S 6 4 5 h a ) / / ( ( ( ^ ^ ^ ^ ^ ^ ^ ^ ^ ^ ^ ^ ^ ^ ^ ^ ^ ^ ! & % o $ % ; ; > ^ ^ ^ ^ ^ ",
"^ ^ / ) _ ` z m b 8 S T Q O.@.#.#.@.O.Q I S 8 b N z ' _ ) / ! ( ^ ^ ^ ^ ^ ^ ^ ^ ^ ^ ^ ^ ^ ^ ^ ^ ^ ^ ! ; % % % % ; : ^ ^ ^ ^ ^ ^ ",
"> ^ ~ _ ' [ } G A D P Q +.$.%.&.&.%.$.+.Q Y D F G V B ] ` / ( ( ^ ^ ^ ^ ^ ^ ^ ^ ^ ^ ^ ^ ^ ^ ^ / ^ ^ ^ ! ; & ; ; ! ^ ^ / ( ^ ^ ^ ",
": ^ ) ' B | U K J K W O.$.&.=.-.-.=.*.$.o.X.J J R U | [ ' ) ^ ! ^ ^ ^ ^ ^ ^ ^ ^ ^ ^ ^ ^ ^ ^ ^ ^ ^ ^ ^ ^ ! ! ; ; ! ^ ^ ^ ^ ^ ^ ^ ",
"> ^ ) ] {  ...L L E X.@.%.=.;.;.;.;.=.%.@.o.L L L E R } ] ) ( ! : ^ ^ ^ ^ ^ ^ ^ ^ ^ ^ ^ ^ ^ ^ ^ ^ ^ ^ ^ ^ ^ ^ ^ ^ ^ ^ ^ ^ ^ ^ ^ ",
"> ^ ) ] }  .L L L ..o.#.&.-.;.;.;.;.-.&.#.o.....L E R } ] ) ^ : ^ ^ ^ ^ ^ ^ ^ ^ ^ ^ ^ ^ ^ ^ ^ ^ ^ ^ ^ ^ ^ / ( ^ ^ ^ ^ ^ ^ ^ ^ ^ ",
": ^ ) ] }  . ...L E o.#.&.-.;.;.;.;.-.&.#.o...L L E R } ] ) ^ ( ! ^ ^ ^ ^ ^ ^ ^ ^ ^ ^ ^ ^ ^ ^ ^ ^ ^ ^ ^ ^ ^ ^ / ^ ^ ^ ^ ^ ^ ^ ^ ",
": ^ ~ ] }  .L L L E X.@.%.=.;.;.;.;.=.%.@.X.E L E E U } ] ) ^ : ^ ^ ^ ^ ^ ^ ^ ^ ^ ^ ^ / ^ ^ ^ ^ ^ ^ ^ ^ ^ ^ ^ ^ ^ ^ ^ ^ ^ ^ ^ ^ ",
"> ^ ) ` B C U H H J W O.$.*.=.-.-.=.*.$.O.W J H H U C B ` ) ^ : ^ ^ ^ ^ ^ ^ ^ / ^ ^ ^ ^ ^ ^ ^ ^ ^ ^ ^ ^ ^ ^ ^ ^ ^ ^ ^ ^ ^ ^ ^ ^ ",
"> ^ ~ a k l m n Z D I Q @.$.%.&.&.%.$.+.Q I D Z n N M k a / ^ ( ^ ^ ^ ^ ^ ^ ^ ^ ^ ^ ^ ^ ^ ^ ^ ^ ^ ^ ^ ^ / ^ ^ ^ ^ ^ ^ ^ ^ ^ ^ ^ ",
"^ ^ ! ~ p i s f 5 7 S P Q o.@.#.#.@.O.X.I S 7 5 v g i p c / ^ ^ ^ ^ ^ ^ ^ ^ ^ ^ ^ ^ ^ ^ ^ ^ ^ ^ ^ ^ ^ ^ ^ ^ ^ ^ ^ ^ ^ ^ ^ ^ ^ ^ ",
"( ^ ! - % # r 0 1 3 6 S I X.X.o.o.X.W T S 6 3 < 9 e # = - ! ^ ( ^ ^ ^ ^ ^ ^ ^ ^ ^ ^ ^ ^ ^ ^ ^ ^ ^ ^ ^ ^ ^ ^ ^ ^ ^ ^ ^ ^ ^ ^ ^ ^ ",
"( ^ ; = % o O 9 q 1 4 8 D R ....E E J D 8 4 1 , 9 O $ * = ! ^ ^ ^ ^ ^ ^ ^ ^ ^ ^ ^ ^ ^ ^ ^ ^ ^ ^ ^ ^ ^ ^ ^ ^ ^ ^ ^ ^ ^ / ^ ^ ^ ^ ",
"/ ^ : ; = % @ e 9 q v b F J L L E E J F b v q w e @ $ * - ! ^ ^ ^ ^ ^ ^ ^ ^ ^ ^ ^ ^ ^ ^ ^ ^ ^ ^ ^ ^ ^ ^ ^ ^ ^ ^ ^ ^ ^ ^ ^ ^ ^ ^ ",
"^ ^ ^ ; - - = y u t h m G K L L L L K G N h g u y - = - ; ! ^ ^ ^ ^ ^ ^ ^ ^ ^ ^ ^ ^ ^ ^ ^ ^ ^ ^ ^ ^ ^ ^ ^ ^ ^ ^ ^ ^ ^ ^ ^ ^ ^ ^ ",
"^ ^ ^ ^ ! ! ! ~ x c k z V U E L E E R V z a c ! x ! ! ! ^ ^ ^ ^ ^ ^ ^ ^ ^ ^ ^ ^ ^ ^ ^ ^ ^ ^ ^ ^ ^ ^ ^ ^ ^ / ^ ^ ^ ^ ^ ^ ^ ^ ^ ^ ",
"^ ^ ^ ^ ^ ^ ^ ^ ^ ^ ~ ' B C U U U U C B ` / ^ ( ^ ^ ^ ^ ^ ^ ^ ^ ^ ^ ^ ^ ^ ^ ^ ^ ^ ^ ^ ^ ^ ^ ^ ^ ^ ^ ^ ^ ^ ^ ^ ^ ^ ^ ^ ^ ^ ^ ^ ^ ",
"^ ^ ^ ^ ( ^ ( ( > ( ^ _ k l M N N M l k a / ( ( ( ( ^ ^ / ^ ^ ^ ^ ^ ^ ^ ^ ^ ^ ^ ^ ^ ^ ^ ^ ^ ^ ^ ^ ^ ^ ^ ^ ^ ^ ^ ^ ^ ^ ^ ^ ^ ^ ^ ",
"^ ^ ^ ^ ^ ^ ^ ( ( ( ^ p p p t t t t i p c ^ ^ ( ( ^ / ^ ^ ^ ^ ^ ^ ^ ^ ^ ^ ^ ^ ^ ^ ^ ^ ^ ^ ^ ^ ^ ^ ^ ^ ^ ^ ^ ^ ^ ^ ^ ^ ^ ^ ^ ^ ^ ",
"^ ^ ^ ^ ^ ^ ^ ^ ( ^ ! - & # + O O O # & x ! ^ ( ( ^ ^ ^ ^ ^ ^ ^ ^ ^ ^ ^ ^ ^ ^ ^ ^ ^ ^ ^ ^ ^ ^ ^ ^ ^ ^ ^ ^ ^ ^ ^ ^ ^ ^ ^ / ^ ^ ^ ",
"^ ^ ^ ^ ^ ^ ^ ^ ^ ^ ; - % o o X . o o * - ; ( ( ^ ^ ^ ^ ^ ^ ^ ^ ^ ^ ^ ^ ^ ^ ^ ^ ^ ^ ^ ^ ^ ^ ^ ^ ^ ! ^ ^ ^ ^ ^ ^ ^ ^ ^ ^ ^ ^ ^ ^ ",
"^ ^ ^ ^ ^ ^ ^ ^ ^ ^ ^ - = $ $ o o $ $ * - ; ^ ^ ( ^ ^ ^ ^ ^ ^ ^ ^ ^ ^ ^ ^ ^ ^ ^ ^ ^ ^ ^ ^ > > ^ ^ ^ ! ^ ^ ^ ^ ^ ^ ^ ^ ^ ^ ^ ^ ^ ",
"^ ^ ^ ^ ^ ^ ^ ^ ^ ^ ! x - = = = = = - - x x ^ ^ ^ ^ ^ ^ ^ ^ ^ ^ ^ ^ ^ ^ ^ ^ ^ ^ ^ ^ ^ ^ : ^ ( > : ^ ^ : ^ ^ ^ ^ ^ ^ ^ ^ ^ ^ ^ ^ ",
"^ ^ ^ ^ ^ ^ ^ / ^ ^ ( ^ ! : ; x - : - ! ( ^ ^ ^ ^ ^ ^ ^ ^ ^ ^ ^ ^ ^ ^ / ^ ^ ^ ^ ^ ^ ^ ^ ^ ^ ^ ^ ^ ^ ^ ^ ^ ^ ^ ^ ^ ^ ^ ^ ^ ^ ^ ^ ",
"^ ^ ^ ^ ^ ^ ^ ^ ^ ^ ^ ^ ( ( ^ ^ ( ( ^ ^ ( ! ^ ^ ^ ^ ^ ^ ^ ^ ^ ^ ^ ^ ^ ^ ^ ^ ^ ^ ^ ^ ^ / ~ ) ) ) ) ) ) ~ / ^ ^ ^ ^ ^ ^ ^ ^ ^ ^ ^ ",
"^ ^ ^ ^ ^ ^ ^ ^ ^ ^ ^ ^ ^ ( ^ ( ( / / ( ^ ( ^ ^ ^ ^ ^ ^ ^ ^ ^ ^ ^ ^ ^ ^ ^ ^ ^ ^ > ( / ) _ ' ] ] ] ] ` ` ) ^ ^ ^ ^ ^ ^ ^ ^ ^ ^ ^ ",
"^ ^ ^ ^ ^ ^ ^ ^ ^ ^ ^ ^ ^ ^ ( / ( ( / ^ ^ ^ ^ ^ ^ ^ ^ ^ ^ ^ ^ ^ ^ ^ ^ ^ ^ ^ ^ ^ > ( / _ ] [ } } } } [ ] ` / ^ > > ^ ^ ^ ^ ^ ^ ^ ",
"^ ^ ^ ^ ^ ^ ^ ^ ^ ^ ^ ^ ^ ^ ^ ^ ^ ^ ^ ^ ^ ^ ^ ^ ^ ^ ^ ^ / ^ ^ ^ ^ ^ ^ ^ ^ ^ ^ > > ( ) ' [ | U  . . .| [ ' ) ^ : > ^ ^ ^ ^ ^ ^ ^ ",
"^ ^ ^ ^ ^ ^ ^ ^ ^ ^ ^ ^ ^ ^ / ^ ^ ^ ^ ^ ^ ^ ^ ^ ^ ^ / ^ ^ ^ ^ ^ ^ ^ ^ ^ ! ^ ^ ^ ~ p a z V R E E  ...U V z a ~ ~ ^ ^ ^ ^ ^ ^ ^ ^ ",
"^ ^ ^ ^ ^ ^ ^ ^ ^ ^ ^ ^ ^ ^ ^ ^ ^ ^ ^ ^ ^ ^ ^ ^ ^ ^ ^ ^ ^ ^ ^ ^ ^ ^ ^ ( ^ > ! p p j h m G K L L L L K G m h j p p x ^ > ^ ^ ^ ^ ",
"^ ^ ^ ^ ^ ^ ^ ^ ^ ^ ^ ^ ^ ^ ^ ^ ^ ^ ^ ^ ^ ^ ^ ^ ^ ^ ^ ^ ^ ^ ^ ^ ^ ^ ^ > > ! ~ p s d v b A H L L L L H A b v d s p ^ ^ > ( ^ ^ ^ ",
"/ ^ ^ ^ ^ ^ ^ ^ ^ ^ ^ ^ ^ ^ ^ ^ ^ ^ ^ ^ ^ ^ ^ / ^ ^ ^ ^ ^ ^ ^ ^ ^ ^ ^ ^ ^ ^ c j d 2 4 8 D H E E E E J A 8 4 2 d j c ( ( ^ ^ ^ ^ ",
"^ ^ ^ ^ ^ ^ ^ ^ ^ ^ ^ ^ ^ ^ ^ ^ ^ ^ ^ ^ ^ ^ ^ ^ ^ ^ ^ ^ ^ ^ ^ ^ ^ ^ ^ / / ) a h v 4 6 S P X.X.o.o.X.W P S 6 4 v h k ~ / / ^ ^ ^ ",
"^ ^ ^ ^ ^ ^ ^ ^ ^ ^ ^ ^ ^ ^ ^ ^ ^ ^ ^ ^ ^ ^ ^ ^ ^ ^ ^ ^ ^ ^ ^ ^ ^ ^ / ) _ ` z m b 8 S H Q O.@.#.#.@.O.X.I S 8 b m z ` _ ) ^ ^ ^ ",
"^ ^ ^ ^ ^ ^ ^ ^ ^ ^ ^ ^ ^ ^ ^ ^ ^ ^ ^ ^ ^ ^ ^ ^ ^ ^ ^ ^ ^ ^ ( ( > ^ ) _ ] [ } G A D Y Q +.$.%.&.&.%.$.+.X.T D F G V [ ] _ / ( ^ ",
"^ ^ ^ ^ ^ ^ ^ ^ ^ ^ ^ ^ ^ ^ ^ ^ ^ ^ ^ ^ ^ ^ ^ ^ ^ ^ ^ ^ ^ ^ ^ ! > ^ ) ` [ |  .H J J X.O.$.&.=.-.-.=.*.$.O...T H H  .| B ' ) ^ > ",
"^ ^ ^ ^ ^ ^ ^ ^ ^ ^ ^ ^ ^ ^ ^ ^ ^ ^ ^ ^ ^ ^ ^ ^ ^ ^ ^ ^ ^ ^ ( ( ^ ^ ) ] }  ...L L E X.@.%.=.;.;.;.;.=.%.@.X...L  . . .{ ] ) ^ > ",
"^ ^ ^ ^ ^ ^ ^ / ^ ^ ^ ^ / ^ ^ / ^ ^ ^ ^ ^ ^ ^ ^ ^ ^ ^ ^ ^ ^ ! ( > ! ) ] }  ...L L ..o.#.&.-.;.;.;.;.-.&.@.X...L L .. .} ] ) ^ : ",
"/ ^ ^ ^ ^ ( ( ^ ^ ^ ^ ^ ^ ( ^ / ^ ^ ^ ^ ^ ^ ^ ^ ^ ^ ^ ^ ^ ^ ^ ! ( ^ ) ] }  .E L E ..o.#.&.-.;.;.;.;.-.&.#.o...L L E  .} ] ) ^ : ",
"^ ^ ^ ^ ^ ( ^ ^ ^ ^ ^ ^ ^ ^ ^ ^ ^ ( ^ ^ ^ ^ ^ ^ ^ ^ ^ ^ ^ ^ ^ ^ : / ) ' } U E E L E X.@.%.=.;.;.;.;.=.%.@.X.E L L E U { ' ) ^ : ",
"( ( ^ x ! ! x ^ ^ ^ ! ^ ! ; x ! ! ( ^ ^ ^ ^ ^ ^ ^ ^ ^ ^ ^ ^ ( ! ! ( ) ` B C U H H J R O.$.*.=.-.-.=.*.$.O.W J H H U C B ` ) ^ ^ ",
"( ( ! ; - - - - x ^ ( ! - - - - x ^ ^ ^ ^ ^ ^ ^ ^ ^ ^ ^ ^ ^ ( ^ ( ( / a k l N n Z D P Q @.$.%.&.&.%.$.@.Q I D Z n N l k a / ^ ( ",
"/ ^ ! - = * * = - ! ! x - * * * - ! ^ ^ / ^ ^ ^ ^ ^ ^ ^ ^ ^ ^ ( ( ^ / c p i s f 5 7 S I Q O.@.#.#.@.O.Q I S 7 2 f s i p x ~ ^ ^ ",
"( ^ : - * o o * - ! ! - * o o @ - ! ^ ( ^ ^ ^ ^ ^ ^ ^ ^ ^ ^ ^ ^ ^ ^ x = = # r 0 < 3 6 S I X.X.X.o.X.W T S 6 3 < 0 e # = - ! ^ ( ",
"( ^ x - * o o @ - - - = * o o * - ! ^ ( ^ ^ ^ ^ ^ ^ / ^ ^ ^ ^ ^ ( ^ ! - $ o O 9 , 1 4 8 D J E ..E E E D 8 4 1 , 9 O $ $ - ! ^ ( ",
"/ ^ ! - = @ * % = = = * * @ * = - ! ^ / ^ ^ ^ ^ ^ ^ ^ ^ ^ ^ ^ ^ ^ ( : - * o @ r s q v b F J L L L L H F b v q s e @ $ = = ^ ^ ^ ",
"^ ^ ! ! - - = % % @ @ * * = - - x ! ( ^ ^ ^ ^ ^ ^ ^ ^ ^ ^ ^ ^ ^ ^ ^ ! ; - - = x u g h N G R L L L L R G N h g p y - - - ; ! ( ^ ",
"^ ^ ^ ^ ^ ! - = $ o o % = - ! ^ ^ ^ ^ ^ ^ ^ ^ ^ ^ ^ ^ ^ ^ ^ ^ ^ ^ ^ ^ ! : x x x x c a z V U E L L E U V z a c x ! x ! ! : ^ ^ ^ ",
"^ ^ ^ ^ ^ ^ ! - * o o % - ! ^ ^ ^ ^ ^ ^ ^ ^ ^ ^ ^ ^ ^ ^ ^ ^ ^ ^ ^ ^ ^ ^ ^ ^ ( ! ( ( ) ' B C U U U U C B ` ) ( ! ^ ^ ^ ^ ^ ^ ^ ^ ",
"^ ^ ^ / ^ ^ ^ - = % % = - ^ ^ ^ ^ ^ ^ ^ ^ ^ ^ ^ ^ ^ ^ ^ ^ ^ ^ ^ ^ ^ ^ / ( ( ( ( ( ! / ) k l M M M M l k _ / ( : ( ^ ( ^ ^ ^ ^ ^ ",
"^ ^ ^ ^ ^ ^ ^ ! - - - - ! ^ ^ ^ / ^ ^ ^ ^ ^ ^ ^ ^ / ^ ^ ^ ^ ^ ^ ^ ^ ^ ^ ( ^ ( ( ( ^ ^ c p i t t t t i p c ! ( ( ( ^ / ^ ^ ^ ^ ^ ",
"^ ^ ^ ^ ^ ^ ^ ^ ! ! ! ! ! ^ ^ ^ ^ ^ ^ ^ ^ ^ ^ ^ ^ ^ ^ ^ ^ ^ ^ ^ ^ ^ ^ ^ ^ ^ ^ ^ ( ^ x x = # # + O O # & x ! ( ( ( ^ ^ ^ ^ ^ ^ ^ ",
"^ ^ ^ ^ ^ ^ ^ ^ ^ ^ ^ ^ ^ ^ ^ ^ ^ ^ ^ ^ ^ ^ ^ ^ ^ ^ ^ ^ ^ ^ ^ ^ ^ ^ ^ ^ ^ ^ ^ / ( ^ - - @ X . . . . o o - ; ^ ( ( ^ ^ ^ ^ ^ ^ ^ ",
"^ ^ ^ ^ ^ ^ ^ / ( ( ( ( / ^ ^ ^ ^ ^ ^ ^ ^ ^ ^ ^ ^ ^ ^ ^ ^ / ^ ^ ^ ^ ^ ^ ^ ^ ^ ( ( ^ ! = $ X         X o = x ^ / ^ ^ ^ ^ ^ ^ ^ ^ "
};
