/* XPM */
static char *player_xpm[] = {
/* columns rows colors chars-per-pixel */
"64 64 6 1",
"  c #00008B",
". c #0000CD",
"X c #0000FF",
"o c #4169E1",
"O c #6495ED",
"+ c #000000",
/* pixels */
"++++++++++++++++++++++++++++++++++++++++++++++++++++++++++++++++",
"++++++++++++++++++++++++++++++++++++++++++++++++++++++++++++++++",
"++++++++++++++++++++++++++++++++++++++++++++++++++++++++++++++++",
"++++++++++++++++++++++++++++++++++++++++++++++++++++++++++++++++",
"++++++++++++++++++oOOOXOoo++++++++++++++++++++++++++++++++++++++",
"+++++++++++++++++oOXXXOOOoo+++++++++++++++++++++++++++++++++++++",
"+++++++++++++++++oXXXXXXOoo+++++++++++++++++++++++++++++++++++++",
"+++++++++++++++++oXXXXXXXo++++++++++++++++++++++++++++++++++++++",
"+++++++++++++++++oXXXXXXXXo+++++++++++++++++++++++++++++++++++++",
"+++++++++++++++++oXXXXXXXo++++++++++++++++++++++++++++++++++++++",
"++++++++++++++++++oXXXXXo+++++++++++++++++++++++++++++++++++++++",
"+++++++++++++++++++oXXXo++++++++++++++++++++++++++++++++++++++++",
"+++++++++++++++++++++X++++++++++++++++++++++++++++++++++++++++++",
"+++++++++++++++++++++X++++++++++++++++++++++++++++++++++++++++++",
"+++++++++++++++++++++X++++++++++++++++++++++++++++++++++++++++++",
"+++++++++++++++++++++X++++++++++++++++++++++++++++++++++++++++++",
"++++++++++++++++++++o.o+++++++++++++++++++++++++++++++++++++++++",
"+++++++++++++++++++o...o++++++++++++++++++++++++++++++++++++++++",
"++++++++++++++++++o.....o+++++++++++++++++++++++++++++++++++++++",
"+++++++++++++++++o.......o++++++++++++++++++++++++++++++++++++++",
"++++++++++++++++o.........o+++++++++++++++++++++++++++++++++++++",
"+++++++++++++++o...........o++++++++++++++++++++++++++++++++++++",
"++++++++++++++o.............o+++++++++++++++++++++++++++++++++++",
"+++++++++++++o...............o++++++++++++++++++++++++++++++++++",
"++++++++++++o.................o+++++++++++++++++++++++++++++++++",
"+++++++++++o...................o++++++++++++++++++++++++++++++++",
"++++++++++o.....................o+++++++++++++++++++++++++++++++",
"+++++++++o.......................o++++++++++++++++++++++++++++++",
"+++++++++o.......................o++++++++++++++++++++++++++++++",
"++++++++++o.....................o+++++++++++++++++++++++++++++++",
"+++++++++++o...................o++++++++++++++++++++++++++++++++",
"++++++++++++o.................o+++++++++++++++++++++++++++++++++",
"+++++++++++++o...............o++++++++++++++++++++++++++++++++++",
"++++++++++++++o.............o+++++++++++++++++++++++++++++++++++",
"+++++++++++++++o...........o++++++++++++++++++++++++++++++++++++",
"++++++++++++++++o.........o+++++++++++++++++++++++++++++++++++++",
"+++++++++++++++++o.......o++++++++++++++++++++++++++++++++++++++",
"++++++++++++++++++o.....o+++++++++++++++++++++++++++++++++++++++",
"+++++++++++++++++++o...o++++++++++++++++++++++++++++++++++++++++",
"++++++++++++++++++++o.o+++++++++++++++++++++++++++++++++++++++++",
"+++++++++++++++++++++X++++++++++++++++++++++++++++++++++++++++++",
"+++++++++++++++++++++X++++++++++++++++++++++++++++++++++++++++++",
"+++++++++++++++++++++X++++++++++++++++++++++++++++++++++++++++++",
"+++++++++++++++++++++X++++++++++++++++++++++++++++++++++++++++++",
"+++++++++++++++++++++X++++++++++++++++++++++++++++++++++++++++++",
"++++++++++++++++++++o.o+++++++++++++++++++++++++++++++++++++++++",
"+++++++++++++++++++o...o++++++++++++++++++++++++++++++++++++++++",
"++++++++++++++++++o.....o+++++++++++++++++++++++++++++++++++++++",
"+++++++++++++++++o.......o++++++++++++++++++++++++++++++++++++++",
"++++++++++++++++o.........o+++++++++++++++++++++++++++++++++++++",
"+++++++++++++++o...........o++++++++++++++++++++++++++++++++++++",
"++++++++++++++o.............o+++++++++++++++++++++++++++++++++++",
"+++++++++++++o...............o++++++++++++++++++++++++++++++++++",
"++++++++++++o.................o+++++++++++++++++++++++++++++++++",
"+++++++++++o...................o++++++++++++++++++++++++++++++++",
"++++++++++o.....................o+++++++++++++++++++++++++++++++",
"+++++++++o.......................o++++++++++++++++++++++++++++++",
"+++++++++o.......................o++++++++++++++++++++++++++++++",
"++++++++++o.....................o+++++++++++++++++++++++++++++++",
"+++++++++++o...................o++++++++++++++++++++++++++++++++",
"++++++++++++o.................o+++++++++++++++++++++++++++++++++",
"++++++++++++++++++++++++++++++++++++++++++++++++++++++++++++++++",
"++++++++++++++++++++++++++++++++++++++++++++++++++++++++++++++++",
"++++++++++++++++++++++++++++++++++++++++++++++++++++++++++++++++"
};