/* XPM */
static char *_49bef7edb874631c12c88c5dbbf2b319KeJlFmguWPyw6LX[] = {
/* columns rows colors chars-per-pixel */
"64 64 211 2 ",
"   c #84C669",
".  c #3D1F29",
"X  c #3D222C",
"o  c #3F2631",
"O  c #3D2935",
"+  c #3B2C3B",
"@  c #352B3B",
"#  c #3A303F",
"$  c #421E25",
"%  c #411F28",
"&  c #41232D",
"*  c #402530",
"=  c #452C37",
"-  c #52353E",
";  c #382F42",
":  c #352E41",
">  c #373245",
",  c #393343",
"<  c #363649",
"1  c #363A4B",
"2  c #393949",
"3  c #393648",
"4  c #2E3F5B",
"5  c #2F3751",
"6  c #323D54",
"7  c #2C344F",
"8  c #233E62",
"9  c #453542",
"0  c #433846",
"q  c #543F49",
"w  c #2E435B",
"e  c #2F4A5F",
"r  c #314057",
"t  c #304159",
"y  c #324A5C",
"u  c #1D4D77",
"i  c #244266",
"p  c #2A4364",
"a  c #2B4A67",
"s  c #26466B",
"d  c #2A4C6A",
"f  c #284669",
"g  c #384864",
"h  c #2B516E",
"j  c #2B596F",
"k  c #36526D",
"l  c #234E75",
"z  c #265373",
"x  c #285271",
"c  c #295C73",
"v  c #23567B",
"b  c #235B7E",
"n  c #275976",
"m  c #375B75",
"M  c #25647C",
"N  c #286078",
"B  c #594049",
"V  c #49475D",
"C  c #71565C",
"Z  c #4C5567",
"A  c #575263",
"S  c #524F61",
"D  c #7B6B73",
"F  c #0F548C",
"G  c #1D5282",
"H  c #16598F",
"J  c #14598E",
"K  c #165D94",
"L  c #195E90",
"P  c #0C5F98",
"I  c #235D83",
"U  c #3D5D84",
"Y  c #1D658E",
"T  c #186493",
"R  c #166F9D",
"E  c #176797",
"W  c #1C7E9C",
"Q  c #18759F",
"!  c #226884",
"~  c #226A99",
"^  c #357293",
"/  c #0C6CA9",
"(  c #1063A0",
")  c #0D72AD",
"_  c #1474A5",
"`  c #1679A7",
"'  c #096DB1",
"]  c #076FB5",
"[  c #0973B5",
"{  c #0D7CB3",
"}  c #0573BB",
"|  c #0878BB",
" . c #107DB1",
".. c #3377AC",
"X. c #576A86",
"o. c #547B98",
"O. c #54738F",
"+. c #677187",
"@. c #6D7085",
"#. c #597EA5",
"$. c #0076C4",
"%. c #027AC5",
"&. c #0076CA",
"*. c #007CCA",
"=. c #0C7EC9",
"-. c #117DC4",
";. c #007BD1",
":. c #927B80",
">. c #1D809D",
",. c #1785AA",
"<. c #168BAD",
"1. c #0C84BB",
"2. c #0C86BB",
"3. c #158CB7",
"4. c #1293B6",
"5. c #378CBA",
"6. c #2B89AF",
"7. c #72818E",
"8. c #548EB7",
"9. c #5795B2",
"0. c #6F8AA6",
"q. c #6799BD",
"w. c #7297B5",
"e. c #0682C2",
"r. c #098BC6",
"t. c #0082CC",
"y. c #058CCB",
"u. c #0889C7",
"i. c #1A87CB",
"p. c #0591CE",
"a. c #0B94C6",
"s. c #109EC3",
"d. c #0085D1",
"f. c #008BD3",
"g. c #008FD8",
"h. c #0D8ED2",
"j. c #178BD1",
"k. c #0194D5",
"l. c #069CD2",
"z. c #0095D9",
"x. c #009BDC",
"c. c #0C9ADA",
"v. c #1398D6",
"b. c #2389CC",
"n. c #2286C8",
"m. c #3C97CB",
"M. c #2D9DD3",
"N. c #229BD6",
"B. c #3899D7",
"V. c #3793C8",
"C. c #08ABD7",
"Z. c #00A0DF",
"A. c #07A9D8",
"S. c #15A4D8",
"D. c #0AB1DA",
"F. c #29A8D7",
"G. c #38A6D1",
"H. c #009DE1",
"J. c #00A1E3",
"K. c #00ABE5",
"L. c #00A6ED",
"P. c #00ADEA",
"I. c #0BA8E4",
"U. c #18A6E3",
"Y. c #00B3ED",
"T. c #00BBED",
"R. c #09B9E6",
"E. c #00BBF1",
"W. c #00B3F3",
"Q. c #11BFEB",
"!. c #25BAE7",
"~. c #3AB5E3",
"^. c #4E9ECA",
"/. c #5098C3",
"(. c #4DA3DB",
"). c #4DAAD5",
"_. c #58A7DC",
"`. c #69AED1",
"'. c #61ADE0",
"]. c #63B2E1",
"[. c #00C1F2",
"{. c #00C4F8",
"}. c #09C6F5",
"|. c #1DCCF5",
" X c #15C5F3",
".X c #21CDF6",
"XX c #3CCAEF",
"oX c #5EDEFA",
"OX c #52D5F5",
"+X c #6DD4F5",
"@X c #A69CA2",
"#X c #9CACB9",
"$X c #8DBDDE",
"%X c #82BEE5",
"&X c #B8CDDE",
"*X c #87C5E9",
"=X c #9ECDED",
"-X c #8DD7F3",
";X c #A8D2F0",
":X c #B1D8F1",
">X c #B8D7E4",
",X c #98E5FB",
"<X c #8AE0F8",
"1X c #A3EDFE",
"2X c #B4E2F5",
"3X c #A7F0FF",
"4X c #C0C3CA",
"5X c #D9EDFA",
"6X c #CDF1FC",
"7X c #D8F7FF",
"8X c #CCE7F7",
/* pixels */
"                                                                                                                                ",
"                                                                                                                                ",
"                                                                                                                                ",
"                                                                                                                                ",
"                                  o o o o o o o o o o o o o o o o o o                                                           ",
"                                o o o o o o o o o o o o o o o o o o o o                                                         ",
"                                o o o o o o o o o o o o o o o o o o o o                                                         ",
"                              o o o o o o o o & & & & & & & & & & o o o o                                                       ",
"          o o o o o o o o o o o o o o o o o o & & & & & & & & & & o o o o o o                                                   ",
"        o o o o o o o o o o o o o o o o o o o o o o o o o o o o o o o o o o o o                                                 ",
"        o o o o o o o o o o o o o o o o o o O + , > < < < < > # + O o o o o o o                                                 ",
"      o o o o & & & & & & & & & & o o & & o + < w d z z z z a r 3 O & & & o o o o                                               ",
"o o o o o o o & & & & & & & & & & o o & & * , w v T R _ _ R Y z 6 + & & & o o o o o o                                           ",
"o o o o o o o o o o o o o o o o o o o & & * 3 a Y  .r.p.p.r. .Y d > o & & o o o o o o o                                         ",
"o o o o o o O + , > < < < < > # + O o & & * 3 h ~ 3.v.I.J.x.r._ b w > + O o o o o o o o                                         ",
"o o o & & o + < t a d z z h a r 3 O & % % o 3 k ^ 5.M.U.I.H.k.1.R b a 6 , O & & & o o o o                                       ",
"o o o & & o # t z Y R _ _ R Y z 6 + & $ $ * 0 Z O.8.^.G.F.c.x.y.1._ Y z 6 + & & & o o o o o o o o o o                           ",
"o o o & & o 3 a Y  .r.p.p.r. .Y d > o X . o 9 A +.0.q.^.M.v.x.z.k.r. .Y a > o & & o o o o o o o o o o o                         ",
"o o o & & o < x Q r.x.J.J.x.r._ b w > O o O 9 A +.0.q.^.M.v.z.x.x.k.u._ v 4 > + O o o & * o o o o o o o                         ",
"o o o & & o 1 n ` l.P.W.P.J.k.1.R b a 1 + O 9 V X.#.8.V.b.h.f.z.z.g.t.[ T l 4 < + O & & & & & & & o o o o                       ",
"o o o & & o 1 n ,.A.Y.W.P.J.z.r.1._ Y d 1 + = V U ..5.n.i.t.t.d.d.d.t.| / K G i < + & $ % & & & & o o o o o o                   ",
"o o o & & o 1 N <.C.T.E.P.J.x.k.k.r. .Y a > > p I _ -.=.=.*.*.*.*.*.%.%.} ' ( G p > o & & o o o o o o o o o o o                 ",
"o o o & & o 1 N <.C.T.E.P.J.x.x.H.x.r._ v w 4 l K [ %.*.*.*.*.*.*.*.*.*.*.%.[ E l 4 < 3 2 1 2 , + O o X o o o o                 ",
"o o o & & o 1 n ,.A.Y.Y.K.x.x.H.H.H.k.{ E b v L / %.t.d.t.t.t.t.t.t.t.d.d.d.%.) T v x x c c j e < O X X X o o o o               ",
"o o o & & o 1 n ` l.P.P.J.x.x.x.H.x.k.r.{ _ _ ) | t.f.f.f.f.f.f.f.f.f.f.f.f.y.e.{ _ _ ` ,.,.W M w # X . X X o o o o o           ",
"o o o & & o < x Q r.x.J.H.x.x.x.x.x.x.k.p.r.r.y.k.k.z.z.z.z.z.z.z.z.z.z.z.z.k.k.y.r.a.l.A.C.s.>.c 2 * & & X o o o o o o         ",
"o o o & & o > a Y  .r.k.x.x.Z.J.J.J.Z.Z.Z.Z.Z.Z.H.J.J.Z.Z.Z.Z.Z.Z.Z.Z.Z.Z.Z.Z.x.x.x.J.Y.E.T.D.4.^ Z B - = * o o o o o o         ",
"o o o & & o + 6 z Y _ 2.p.Z.P.P.P.P.P.P.P.Y.Y.P.P.P.P.P.P.P.P.P.P.P.P.P.P.P.P.P.P.P.Y.E.{.{.Q.F.9.7.D C B = & X X o o o o       ",
"o o o & & o + > 6 a I Q a.A.T.E.E.T.T.T.E.E.E.E.T.T.T.T.T.T.T.T.T.T.T.T.T.T.T.T.Y.T.E.E.{.{. XOX`.#X@X:.C - & . X o o o o o o o ",
"o o o o o o o O + > e ! 3.C.E.{.[.[.[.[.[.[.[.[.[.[.[.[.[.[.[.[.[.[.[.E.[.[.[.[.[.[.[.[.{.{.|.OX-X>X4X@XD B * X X o o o o o o o ",
"o o o o o o o & & o 1 c ,.C.T.[.E.T.T.T.T.T.T.T.T.T.T.T.T.T.T.T.T.T.T.T.T.T.T.}. X|..X|.|..XXXoX,X2X&X#X@.V , @ O o o o o o o o ",
"o o o o o o & & $ & , h Q a.K.P.P.K.K.K.K.K.K.K.K.K.K.K.K.K.K.K.K.K.K.K.K.K.R.!.XXOXoXoXoXoXoX+X-X-X$Xw.o.m p 7 : O o & * o o o ",
"o o o o o o & & $ & + a E 1.k.x.z.k.k.k.k.k.k.k.k.k.k.k.k.k.k.k.k.k.k.k.k.k.S.~.+X<X,X3X3X1X,X-X+X].(.V...~ G s 5 + o & & o o o ",
"o o o o o o o & & o > d T [ t.d.d.t.t.t.t.t.t.t.t.t.t.t.t.t.t.t.t.t.t.*.*.t.j.(.*X2X6X7X7X6X2X*X'.B.i.-.| ' ( G 4 ; o & & o o o ",
"o o o o o o O O + > 4 z E [ *.*.*.*.*.*.%.%.%.%.%.*.*.*.*.*.*.*.*.*.*.%.%.*.j.(.*X:X8X5X5X8X:X%X(.i.%.&.&.$.' H a > o & & o o o ",
"o o o & & o + 3 6 d v T ) %.t.d.d.d.t.*.*.*.*.*.*.t.t.t.t.t.t.t.t.t.t.*.*.t.j.B.].*X=X;X;X=X*X'.B.u.&.&.;.*.] K f > o & & o o o ",
"o o o & & o # r z Y _ { e.y.f.f.g.g.f.d.t.*.*.*.t.f.f.f.f.f.f.f.f.f.f.f.f.f.h.N.B.(._.'.'._.(.B.j.*.*.*.;.*.} K s > o & & o o o ",
"o o o & & o > a Y  .r.k.k.k.z.z.z.z.k.f.t.%.%.t.f.k.z.z.z.z.z.z.z.z.z.z.z.z.k.h.j.j.b.b.b.b.i.i.=.%.$.*.*.$.' H a > o & & o o o ",
"o o o & & o < x R r.x.H.H.x.x.k.p.r.e.| [ [ [ %.y.k.x.x.x.x.x.x.x.x.x.x.x.x.k.y.%.[ ' ' ' ' ' ' ' ' ' ] ] ' ( G p ; o & & o o o ",
"o o o & & o < z _ p.J.L.L.H.x.r.1._ R T L L E ) e.k.x.H.x.x.x.x.x.x.x.H.J.H.k.e.) P F F F F J J H H H K K H G s 6 + o & & o o o ",
"o o o & & o < z _ p.J.L.L.H.k.1.R I h a p f l T { y.x.H.H.x.x.x.x.x.x.H.J.H.k.{ T u i 8 8 i i i i i a f f a p 6 > + o & * o o o ",
"o o o & & o < x R r.x.J.J.x.r._ b w < + + > 4 v _ r.x.H.H.x.x.x.x.x.x.H.H.x.r._ v 4 > # ; > > > > > > > > > ; + + O o o o o o o ",
"o o o & & o 3 a Y  .r.p.p.r. .Y d > o & & o 3 h ~ i.v.c.x.x.x.x.x.x.x.z.k.r. .Y a > o & & o o o o o o o o o o o o o o o o o o o ",
"o o o & & o , t z Y R _ _ R Y z 6 + & $ $ & 9 g ^ 5.M.N.v.c.x.H.H.H.z.r.1._ Y z 6 + & & & & & & & & & & & & & & & o o o o o o o ",
"o o o & & o + < t a x z z x a r 3 O & $ $ & 9 S X.8./.m.N.c.x.H.H.H.k.1.R b a 6 , O & & & & & & & & & & & & & & * o o o o       ",
"o o o o o o O + , 3 < < < < > # + O o X X * 9 A +.0.q.^.M.v.x.H.H.x.r._ b w > + O o o * * o o o o o o o o o o o o o o o         ",
"o o o o o o o o o o o o o o o o o o o X X O 9 A +.0.`.).F.S.x.x.k.r. .Y a > o & & o o o o o o o o o o o o o o o o o o o         ",
"o o o o o o o & & & & & & & & & & o o X X O 0 Z o.9.).~.!.I.J.l.2.` Y z 6 + & & & o o o o o o o o o o o o o o o o o o           ",
"      o o o o & & & & & & & & & & o o X X o 2 m 6.G.!.|. XT.K.a.` I a 6 , O & & & o o o o                                       ",
"        o o o o o o o o o o o o o o o & & o 2 m 6.S.Q.}.}.T.C.3.! e > + O o o o o o o o                                         ",
"        o o o o o o o o o o o o o o o & & o 2 j W s.D.R.R.D.s.W j 1 o & & o o o o o o o                                         ",
"          o o o o o o o o o o o o o o & & o , e ! W <.4.4.<.W M y # & & & o o o o o o                                           ",
"                              o o o o & & o + 1 e c N M M N j y 2 O & & & o o o o                                               ",
"                                o o o o o o O + , 1 1 1 1 1 2 , + O o o o o o o                                                 ",
"                                o o o o o o o o o o o o o o o o o o o o o o o o                                                 ",
"                                  o o o o o o & & & & & & & & & & o o o o o o                                                   ",
"                                      o o o o & & & & & & & & & & o o o o                                                       ",
"                                        o o o o o o o o o o o o o o o o                                                         ",
"                                        o o o o o o o o o o o o o o o o                                                         ",
"                                          o o o o o o o o o o o o o o                                                           ",
"                                                                                                                                ",
"                                                                                                                                ",
"                                                                                                                                ",
"                                                                                                                                "
};
