/* XPM */
static char *result[] = {
/* columns rows colors chars-per-pixel */
"64 64 127 2 ",
"   c #3B1D2E",
".  c #3C212F",
"X  c #3F2531",
"o  c #3E2A32",
"O  c #3F3433",
"+  c #3D3B34",
"@  c #402531",
"#  c #412B33",
"$  c #4C2D35",
"%  c #423535",
"&  c #423C36",
"*  c #473938",
"=  c #483B39",
"-  c #563338",
";  c #563839",
":  c #5F3A3B",
">  c #3F4636",
",  c #3F4D37",
"<  c #3E4E38",
"1  c #3F5038",
"2  c #3F5E3A",
"3  c #3F613B",
"4  c #404236",
"5  c #404937",
"6  c #4E453D",
"7  c #404E38",
"8  c #4D4A3D",
"9  c #53443B",
"0  c #504E3F",
"q  c #415039",
"w  c #41583A",
"e  c #4C5C3E",
"r  c #50593D",
"t  c #41623C",
"y  c #416D3E",
"u  c #42723F",
"i  c #545442",
"p  c #555A43",
"a  c #595E46",
"s  c #6F4541",
"d  c #7C5447",
"f  c #765E46",
"g  c #596146",
"h  c #596B47",
"j  c #5B6648",
"k  c #5E6E4A",
"l  c #4A7140",
"z  c #427B40",
"x  c #4B7844",
"c  c #5A7F46",
"v  c #5A7C4B",
"b  c #696D46",
"n  c #657C4F",
"m  c #657E50",
"M  c #815147",
"N  c #865649",
"B  c #9D6751",
"V  c #9D7B54",
"C  c #A57254",
"Z  c #AB7756",
"A  c #B17557",
"S  c #3E9544",
"D  c #3F9845",
"F  c #438642",
"G  c #438A43",
"H  c #4B8E47",
"J  c #598046",
"K  c #429545",
"L  c #4B9046",
"P  c #439946",
"I  c #469C48",
"U  c #4B9B4A",
"Y  c #559449",
"T  c #5B944C",
"R  c #5C984B",
"E  c #6B8B4C",
"W  c #6B8C55",
"Q  c #6D9357",
"!  c #6F9458",
"~  c #6D9C58",
"^  c #7A9551",
"/  c #739E5B",
"(  c #4DA14C",
")  c #52A44E",
"_  c #55A550",
"`  c #5AA652",
"'  c #5CAA53",
"]  c #61AD56",
"[  c #6DA85A",
"{  c #76A35D",
"}  c #67B159",
"|  c #6CB45C",
" . c #70B75E",
".. c #72B95F",
"X. c #7AAF61",
"o. c #7CB362",
"O. c #75BB61",
"+. c #7CBD64",
"@. c #77C163",
"#. c #7DC165",
"$. c #7EC867",
"%. c #878250",
"&. c #849C54",
"*. c #9F9458",
"=. c #A09459",
"-. c #AF9F5E",
";. c #BF9460",
":. c #80BD66",
">. c #B6A461",
",. c #D08C62",
"<. c #CF9263",
"1. c #D29464",
"2. c #DB9466",
"3. c #D3A367",
"4. c #DCAA6A",
"5. c #E9A56C",
"6. c #F3A66E",
"7. c #F3AD6F",
"8. c #F4AD70",
"9. c #FEAE72",
"0. c #FFB173",
"q. c #81C367",
"w. c #84C669",
"e. c #86CA6A",
"r. c #88CD6C",
"t. c #8AD36E",
"y. c #84C669",
/* pixels */
"y.y.y.y.y.y.y.y.y.y.y.y.y.y.y.y.y.y.y.y.y.y.y.y.y.y.y.y.y.y.y.y.y.y.y.y.y.y.y.y.y.y.y.y.y.y.y.y.y.y.y.y.y.y.y.y.y.y.y.y.y.y.y.y.",
"y.y.y.y.y.y.y.y.y.y.y.y.y.y.y.y.y.y.y.y.y.y.y.y.y.y.y.y.y.y.y.y.y.y.y.y.y.y.y.y.y.y.y.y.y.y.y.y.y.y.y.y.y.y.y.y.y.y.y.y.y.y.y.y.",
"y.y.y.y.y.y.y.y.y.y.y.y.y.y.y.y.y.y.y.y.y.y.y.y.y.y.y.y.y.y.y.y.y.y.y.y.y.y.y.y.y.y.y.y.y.y.y.y.y.y.y.y.y.y.y.y.y.y.y.y.y.y.y.y.",
"y.y.y.y.y.y.y.y.y.y.y.y.y.y.y.y.y.y.y.y.y.y.y.y.y.y.y.y.y.y.y.y.y.y.y.y.y.y.y.y.y.y.y.y.y.y.y.y.y.y.y.y.y.y.y.y.y.y.y.y.y.y.y.y.",
"y.y.y.y.y.y.y.y.y.y.y.y.y.X X X X X X X X X X X X X X y.y.y.y.y.y.y.y.y.y.y.y.y.y.y.y.y.y.y.y.y.y.y.y.y.y.y.y.y.y.y.y.y.y.y.y.y.",
"y.y.y.y.y.y.y.y.y.y.y.y.X X X X X X X X X X @ X X X @ X y.y.y.y.y.y.y.y.y.y.y.y.y.y.y.y.y.y.y.y.y.y.y.y.y.y.y.y.y.y.y.y.y.y.y.y.",
"y.y.y.y.y.y.y.y.y.y.y.y.X X @ X X X X X X X @ X X X X X y.y.y.y.y.y.y.y.y.y.y.y.y.y.y.y.y.y.y.y.y.y.y.y.y.y.y.y.y.y.y.y.y.y.y.y.",
"y.y.y.y.y.y.y.y.y.y.y.X X X X X X   X . X X   X X X X X X y.y.y.y.y.y.y.y.y.y.y.y.y.y.y.y.y.y.y.y.y.y.y.y.y.y.y.y.y.y.y.y.y.y.y.",
"y.y.y.y.y.y.y.y.y.X X o X X X X X . . X   . X X X X X X X X X y.y.y.y.y.y.y.y.y.y.y.y.y.y.y.y.y.y.y.y.y.y.y.y.y.y.y.y.y.y.y.y.y.",
"y.y.y.y.y.y.y.y.X X X X @ X X X @ @ @ @ X X @ @ X X X X X X X X y.y.y.y.y.y.y.y.y.y.y.y.y.y.y.y.y.y.y.y.y.y.y.y.y.y.y.y.y.y.y.y.",
"y.y.y.y.y.y.y.y.X X @ X X X # % % * & = = & * % % X X X X X X X y.y.y.y.y.y.y.y.y.y.y.y.y.y.y.y.y.y.y.y.y.y.y.y.y.y.y.y.y.y.y.y.",
"y.y.y.y.y.y.y.y.o @ X X X X # = 0 p g j j g p 0 * % X X X X X X y.y.y.y.y.y.y.y.y.y.y.y.y.y.y.y.y.y.y.y.y.y.y.y.y.y.y.y.y.y.y.y.",
"y.y.y.y.y.y.y.y.X X X X X X % 0 j m W ! Q W n j 8 % @ @ X X X X y.y.y.y.y.y.y.y.y.y.y.y.y.y.y.y.y.y.y.y.y.y.y.y.y.y.y.y.y.y.y.y.",
"y.y.y.y.y.y.y.y.X X X . . X = p m / o.o.+.o./ n p * X X X X X X y.y.y.y.y.y.y.y.y.y.y.y.y.y.y.y.y.y.y.y.y.y.y.y.y.y.y.y.y.y.y.y.",
"y.y.y.y.y.y.y.y.X X X . . X = a W o.w.t.e.w.o.W a = X   . X X X y.y.y.y.y.y.y.y.y.y.y.y.y.y.y.y.y.y.y.y.y.y.y.y.y.y.y.y.y.y.y.y.",
"y.y.y.y.y.y.y.X X X X .   . * a W o.e.t.t.e.o.W a = X   X X X # X y.y.y.y.y.y.y.y.y.y.y.y.y.y.y.y.y.y.y.y.y.y.y.y.y.y.y.y.y.y.y.",
"y.y.y.y.y.X X X X X X     X * a W o.e.t.t.r.o.W a % X     X X X o @ X y.y.y.y.y.y.y.y.y.y.y.y.y.y.y.y.y.y.y.y.y.y.y.y.y.y.y.y.y.",
"y.y.y.y.X X X X X X X X X X = a W o.w.t.t.w.o.W g * @ X . X X X @ X X X y.y.y.y.y.y.y.y.y.y.y.y.y.y.y.y.y.y.y.y.y.y.y.y.y.y.y.y.",
"y.y.y.y.X X @ X X X # @ # * 8 k Q X.w.r.r.w.o.Q k 0 * # @ @ @ X X X @ X y.y.y.y.y.y.y.y.y.y.y.y.y.y.y.y.y.y.y.y.y.y.y.y.y.y.y.y.",
"y.y.y.y.o X X X X @ # * 8 p k W { +.w.e.e.w.+.{ W k p 8 * # X X X X o X X y.y.y.y.y.y.y.y.y.y.y.y.y.y.y.y.y.y.y.y.y.y.y.y.y.y.y.",
"y.y.y.y.@ X X X X X % 8 j m W X.o.:.w.e.e.w.q.o.{ Q n j 8 % X   X X X X X X X X X X @ X X X X X X o X y.y.y.y.y.y.y.y.y.y.y.y.y.",
"y.y.y.y.X X X X X X * i m / o.+.q.w.w.w.w.w.w.q.:.o./ n p = X X X X X X X X X X X X X X X X X X X @ @ o y.y.y.y.y.y.y.y.y.y.y.y.",
"y.y.y.y.X X X X . X = g W X.w.e.e.w.w.w.w.w.w.e.e.w.o.W a * X   X X X X X X X X X X X X X X X X X X X X y.y.y.y.y.y.y.y.y.y.y.y.",
"y.y.y.X X X X .   X = g W o.r.r.r.e.w.w.w.w.w.r.t.e.o.W g * X   . X X X X X X . X X X X . . X . X X X X @ y.y.y.y.y.y.y.y.y.y.y.",
"X X X X X @ X X   X = a W o.e.r.r.w.w.w.w.w.w.e.r.e.:.W a = X   . X X X X X X X X . . . . . X X X X X X X X X y.y.y.y.y.y.y.y.y.",
"X X @ X X X X X   X = g W o.w.r.e.w.w.w.w.w.w.r.r.w.X.W g & X X X X X X X X X X @ @ @ @ X X @ @ X X X X X X X X y.y.y.y.y.y.y.y.",
"o X X X X X X X o O 8 h Q o.w.e.e.w.w.w.w.w.e.e.r.w.o.W h 8 O X X X X X X # o % % * & = = = = % % X X X X X X X y.y.y.y.y.y.y.y.",
"@ X X X X X O O + , e v ~ o.w.r.e.e.w.e.e.w.w.e.r.e.o.~ v e , > O X X X X @ # & 0 p g j j g p 8 = # X X X X X X y.y.y.y.y.y.y.y.",
"X @ X X X X o + < 3 x T [ +.w.r.e.e.e.e.e.w.w.e.e.w.+.[ T x t 1 + o @ @ . X % i j m W ! Q W m j 8 % X X X X X X y.y.y.y.y.y.y.y.",
"X X X @ X X O > 3 z H _ | +.w.e.w.w.w.w.w.w.w.e.e.w.+.| ` H z 3 5 O X   . X * i m / o.o.o.o./ m a = X   X X X X y.y.y.y.y.y.y.y.",
"o X X X @ X O , 3 G U ' } O.+.#.q.+.+.+.+.+.@.+.#.+...} _ U F 3 , % @     X * a W o.w.t.t.w.o.W g * X X X X o X y.y.y.y.y.y.y.y.",
"@ X X X X X O q 3 K U ) ' } | |  .| | | | | | |  .| | ' ) U F y 1 O       X * a W o.e.t.t.e.o.W a % X   X X @ X X y.y.y.y.y.y.y.",
"X X @ . X X O q y G I ( _ _ ` ` ' ' ` ` ` ` ` ` ` ` _ _ U K S u 1 O X     . * p W X.w.t.t.e.o.W a * X   . X X X X X X y.y.y.y.y.",
"X @ @ X . X % , y F K I U U U U U U U U U U U U U U U U I G S l 1 % X .   @ * a W X.w.t.t.e.o.W g * @   X X X X X X X X y.y.y.y.",
"X X @ X X X O q y F K P K K K K K K K P U U U U I K K P P P F 3 1 O @ @ # * i k ! :.w.r.r.w.o.! k 0 * % @ @ @ @ X X X X y.y.y.y.",
"@ X @ . @ X % q y G P P P K K S G K H U ) _ ` U U P K K P P G z 7 % % * 6 i k W { :.w.r.r.w.:./ W k p 6 = % X . X X X X y.y.y.y.",
"X X X X X X % q y G I P K K K S K K P ) ' } } ' U L K P D P G 3 , % % 9 g m Q { o.q.w.r.e.w.:.o.{ Q n j 8 % @ @ X X X @ y.y.y.y.",
"X X @ X X X O 7 y F K K P K K K K K L ` } O.O.} ' U K K K K F 3 , % * i m / o.:.q.w.w.w.w.w.w.q.:.o.{ n i * @ . X @ X o y.y.y.y.",
"X X X X @ X O 5 w z G G K K K K K P U ` } O.O.| _ U K K G G z 2 > O * a W X.w.w.w.@.#.#.q.w.w.e.e.w.X.W g * @ . X X X X y.y.y.y.",
"@ X X X X X o > q t u F G K P S S S I ( ' ] } ' ) I K G z z w , O # * a W o.w.$.@. .|  .+.q.w.r.r.e.o.W g * @ . . X X X X y.y.y.",
"X X @ X X X # O + , w y z G P D S S K I ( _ _ _ U I G z 3 2 , O X o = a Q o.q.@.| ' ' } O.#.w.r.r.e.o.W g * X   . X X X X X X X ",
"X X o X X X X o o O > w l G K P P P K I I U I U I P G l 2 > O o X o = g W o.#.O.] _ _ ' | #.e.r.r.w.o.W g & X X X X X X X X X X ",
"X @ X X X @ X X   X O > 3 z F H Y Y T T R R T Y L G z 3 , O o X o O 8 h Q o.@...] ) _ '  .+.w.r.r.w.o.W h 8 % X X X X X X X X X ",
"X o X @ X X X X X X o + < 3 l c E ^ &.&.&.^ ^ E c l 2 < O o @ o + , p v ~ o.q.@.| ] ' | O.q.w.r.r.e.O.~ v p 7 + O o X X X X X X ",
"y.y.y.o X X X @ X X X O + 5 r b %.=.-.>.>.-.*.%.b 0 , + o o o + , 3 x T [ +.w.#.+. . .O.#.w.e.e.e.w.+.[ T x t 1 + o X @ X X X X ",
"y.y.y.y.X X X X X X X o o % 9 f V ;.3.4.4.3.;.V f i O X X X O > 3 3 H _ [ +.w.w.#.+.#.#.#.w.w.e.e.w.+.| _ L z w 5 O X X X X X X ",
"y.y.y.y.X X X X X X . . . X ; d Z 1.5.8.8.5.<.C d $ o   X X % < 3 G U ' } O.@.#.#.#.@.+.+.#.#.#.#.+.O.} ' I G 3 7 O X X X @ o X ",
"y.y.y.y.y.X @ o X o X     X ; M A 2.6.0.0.6.,.B s $ X     X O < z S I ) ] } |  .|  . .| | | | |  .| } ' ) U G u 1 O X X X X X X ",
"y.y.y.y.y.y.y.y.y.y.y.y.y.y.y.y.y.y.y.y.y.y.y.N : $ X . . X O 7 y G I ( _ _ ` ' ' ' ` ' ' ' ` ` ` ' ` _ U I G y , O X @ X @ X X ",
"y.y.y.y.y.y.y.y.y.y.y.y.y.y.y.y.y.y.y.y.y.y.y.y.$ # @ . X X % < y F K I U U U U U U U U U U U U U U U I I P F l , O @ . . @ @ X ",
"y.y.y.y.y.y.y.y.y.y.y.y.y.y.y.y.y.y.y.y.y.y.y.y.@ X X @ X X % 1 y F K P K K K K K K K K K K K K K K K P P K S 3 < % o X X X X X ",
"y.y.y.y.y.y.y.y.y.y.y.y.y.y.y.y.y.y.y.y.y.y.y.y.X X @ . X o O q y G P P K K S K K K K G K K K K K S S P D K F l 1 O X X @ X X X ",
"y.y.y.y.y.y.y.y.y.y.y.y.y.y.y.y.y.y.y.y.y.y.y.y.X X X . . X % q u G K I P K K K K K K K K K S K K K K P P P z y 7 % @ . X X X X ",
"y.y.y.y.y.y.y.y.y.y.y.y.y.y.y.y.y.y.y.y.y.y.y.y.X X X X X X O 7 y F K K K K K K K K K K K K K K K K K K K K S l < % @ X X X @ X ",
"y.y.y.y.y.y.y.y.y.y.y.y.y.y.y.y.y.y.y.y.y.y.y.y.X X X X @ X O 5 w z G G K K K K K K K K K K K K K K K K K G z t 5 O X X X X X X ",
"y.y.y.y.y.y.y.y.y.y.y.y.y.y.y.y.y.y.y.y.y.y.y.y.X X X X X X o & q t u F G K P K K S S S S S S P K K K G z l 3 1 4 o X X @ X X X ",
"y.y.y.y.y.y.y.y.y.y.y.y.y.y.y.y.y.y.y.y.y.y.y.y.X X X X X X o O > 5 w y z G P P K S S S S S K D D P S z l w , + O # @ X X X X X ",
"y.y.y.y.y.y.y.y.y.y.y.y.y.y.y.y.y.y.y.y.y.y.y.y.X X X X X X X o X O 4 w z F K P P K K P K K K K P K F u 1 + O o o o X X X X X @ ",
"y.y.y.y.y.y.y.y.y.y.y.y.y.y.y.y.y.y.y.y.y.y.y.y.o @ o X X X X X X X O 5 t z F L Y Y R R T R Y Y H F y 3 < O X X X X X X X X X X ",
"y.y.y.y.y.y.y.y.y.y.y.y.y.y.y.y.y.y.y.y.y.y.y.y.y.X X X X X X X X X X + , t l c E ^ &.&.&.&.^ E v l l < + o X   X @ X X X @ o X ",
"y.y.y.y.y.y.y.y.y.y.y.y.y.y.y.y.y.y.y.y.y.y.y.y.y.y.y.X X X X X X X o O + > e b %.*.-.>.>.-.*.%.b i > + o o X X X @ X X @ y.y.y.",
"y.y.y.y.y.y.y.y.y.y.y.y.y.y.y.y.y.y.y.y.y.y.y.y.y.y.y.y.X X X X X X X . o O 9 f V ;.3.4.4.3.;.V f 9 O o o X X X X X X X y.y.y.y.",
"y.y.y.y.y.y.y.y.y.y.y.y.y.y.y.y.y.y.y.y.y.y.y.y.y.y.y.y.X X X X X X X X   @ ; d Z 1.5.8.8.5.<.Z d ; X . X X X X X X @ X y.y.y.y.",
"y.y.y.y.y.y.y.y.y.y.y.y.y.y.y.y.y.y.y.y.y.y.y.y.y.y.y.y.o X X X X X X     @ - M A 2.6.9.9.6.2.A d - X . X X X @ o X o X y.y.y.y."
};
